G04 #@! TF.GenerationSoftware,KiCad,Pcbnew,(5.1.5)-3*
G04 #@! TF.CreationDate,2020-03-21T18:19:31+03:00*
G04 #@! TF.ProjectId,CAN+Power v0.1,43414e2b-506f-4776-9572-2076302e312e,rev?*
G04 #@! TF.SameCoordinates,Original*
G04 #@! TF.FileFunction,Copper,L2,Bot*
G04 #@! TF.FilePolarity,Positive*
%FSLAX46Y46*%
G04 Gerber Fmt 4.6, Leading zero omitted, Abs format (unit mm)*
G04 Created by KiCad (PCBNEW (5.1.5)-3) date 2020-03-21 18:19:31*
%MOMM*%
%LPD*%
G04 APERTURE LIST*
%ADD10C,0.100000*%
%ADD11R,0.900000X0.800000*%
%ADD12O,1.700000X1.700000*%
%ADD13R,1.700000X1.700000*%
%ADD14C,2.600000*%
%ADD15R,2.600000X2.600000*%
%ADD16C,0.800000*%
%ADD17C,0.700000*%
%ADD18C,0.250000*%
%ADD19C,0.500000*%
%ADD20C,0.254000*%
G04 APERTURE END LIST*
G04 #@! TA.AperFunction,SMDPad,CuDef*
D10*
G36*
X149349504Y-87836204D02*
G01*
X149373773Y-87839804D01*
X149397571Y-87845765D01*
X149420671Y-87854030D01*
X149442849Y-87864520D01*
X149463893Y-87877133D01*
X149483598Y-87891747D01*
X149501777Y-87908223D01*
X149518253Y-87926402D01*
X149532867Y-87946107D01*
X149545480Y-87967151D01*
X149555970Y-87989329D01*
X149564235Y-88012429D01*
X149570196Y-88036227D01*
X149573796Y-88060496D01*
X149575000Y-88085000D01*
X149575000Y-88835000D01*
X149573796Y-88859504D01*
X149570196Y-88883773D01*
X149564235Y-88907571D01*
X149555970Y-88930671D01*
X149545480Y-88952849D01*
X149532867Y-88973893D01*
X149518253Y-88993598D01*
X149501777Y-89011777D01*
X149483598Y-89028253D01*
X149463893Y-89042867D01*
X149442849Y-89055480D01*
X149420671Y-89065970D01*
X149397571Y-89074235D01*
X149373773Y-89080196D01*
X149349504Y-89083796D01*
X149325000Y-89085000D01*
X148075000Y-89085000D01*
X148050496Y-89083796D01*
X148026227Y-89080196D01*
X148002429Y-89074235D01*
X147979329Y-89065970D01*
X147957151Y-89055480D01*
X147936107Y-89042867D01*
X147916402Y-89028253D01*
X147898223Y-89011777D01*
X147881747Y-88993598D01*
X147867133Y-88973893D01*
X147854520Y-88952849D01*
X147844030Y-88930671D01*
X147835765Y-88907571D01*
X147829804Y-88883773D01*
X147826204Y-88859504D01*
X147825000Y-88835000D01*
X147825000Y-88085000D01*
X147826204Y-88060496D01*
X147829804Y-88036227D01*
X147835765Y-88012429D01*
X147844030Y-87989329D01*
X147854520Y-87967151D01*
X147867133Y-87946107D01*
X147881747Y-87926402D01*
X147898223Y-87908223D01*
X147916402Y-87891747D01*
X147936107Y-87877133D01*
X147957151Y-87864520D01*
X147979329Y-87854030D01*
X148002429Y-87845765D01*
X148026227Y-87839804D01*
X148050496Y-87836204D01*
X148075000Y-87835000D01*
X149325000Y-87835000D01*
X149349504Y-87836204D01*
G37*
G04 #@! TD.AperFunction*
G04 #@! TA.AperFunction,SMDPad,CuDef*
G36*
X149349504Y-85036204D02*
G01*
X149373773Y-85039804D01*
X149397571Y-85045765D01*
X149420671Y-85054030D01*
X149442849Y-85064520D01*
X149463893Y-85077133D01*
X149483598Y-85091747D01*
X149501777Y-85108223D01*
X149518253Y-85126402D01*
X149532867Y-85146107D01*
X149545480Y-85167151D01*
X149555970Y-85189329D01*
X149564235Y-85212429D01*
X149570196Y-85236227D01*
X149573796Y-85260496D01*
X149575000Y-85285000D01*
X149575000Y-86035000D01*
X149573796Y-86059504D01*
X149570196Y-86083773D01*
X149564235Y-86107571D01*
X149555970Y-86130671D01*
X149545480Y-86152849D01*
X149532867Y-86173893D01*
X149518253Y-86193598D01*
X149501777Y-86211777D01*
X149483598Y-86228253D01*
X149463893Y-86242867D01*
X149442849Y-86255480D01*
X149420671Y-86265970D01*
X149397571Y-86274235D01*
X149373773Y-86280196D01*
X149349504Y-86283796D01*
X149325000Y-86285000D01*
X148075000Y-86285000D01*
X148050496Y-86283796D01*
X148026227Y-86280196D01*
X148002429Y-86274235D01*
X147979329Y-86265970D01*
X147957151Y-86255480D01*
X147936107Y-86242867D01*
X147916402Y-86228253D01*
X147898223Y-86211777D01*
X147881747Y-86193598D01*
X147867133Y-86173893D01*
X147854520Y-86152849D01*
X147844030Y-86130671D01*
X147835765Y-86107571D01*
X147829804Y-86083773D01*
X147826204Y-86059504D01*
X147825000Y-86035000D01*
X147825000Y-85285000D01*
X147826204Y-85260496D01*
X147829804Y-85236227D01*
X147835765Y-85212429D01*
X147844030Y-85189329D01*
X147854520Y-85167151D01*
X147867133Y-85146107D01*
X147881747Y-85126402D01*
X147898223Y-85108223D01*
X147916402Y-85091747D01*
X147936107Y-85077133D01*
X147957151Y-85064520D01*
X147979329Y-85054030D01*
X148002429Y-85045765D01*
X148026227Y-85039804D01*
X148050496Y-85036204D01*
X148075000Y-85035000D01*
X149325000Y-85035000D01*
X149349504Y-85036204D01*
G37*
G04 #@! TD.AperFunction*
G04 #@! TA.AperFunction,SMDPad,CuDef*
G36*
X149349504Y-82636204D02*
G01*
X149373773Y-82639804D01*
X149397571Y-82645765D01*
X149420671Y-82654030D01*
X149442849Y-82664520D01*
X149463893Y-82677133D01*
X149483598Y-82691747D01*
X149501777Y-82708223D01*
X149518253Y-82726402D01*
X149532867Y-82746107D01*
X149545480Y-82767151D01*
X149555970Y-82789329D01*
X149564235Y-82812429D01*
X149570196Y-82836227D01*
X149573796Y-82860496D01*
X149575000Y-82885000D01*
X149575000Y-83635000D01*
X149573796Y-83659504D01*
X149570196Y-83683773D01*
X149564235Y-83707571D01*
X149555970Y-83730671D01*
X149545480Y-83752849D01*
X149532867Y-83773893D01*
X149518253Y-83793598D01*
X149501777Y-83811777D01*
X149483598Y-83828253D01*
X149463893Y-83842867D01*
X149442849Y-83855480D01*
X149420671Y-83865970D01*
X149397571Y-83874235D01*
X149373773Y-83880196D01*
X149349504Y-83883796D01*
X149325000Y-83885000D01*
X148075000Y-83885000D01*
X148050496Y-83883796D01*
X148026227Y-83880196D01*
X148002429Y-83874235D01*
X147979329Y-83865970D01*
X147957151Y-83855480D01*
X147936107Y-83842867D01*
X147916402Y-83828253D01*
X147898223Y-83811777D01*
X147881747Y-83793598D01*
X147867133Y-83773893D01*
X147854520Y-83752849D01*
X147844030Y-83730671D01*
X147835765Y-83707571D01*
X147829804Y-83683773D01*
X147826204Y-83659504D01*
X147825000Y-83635000D01*
X147825000Y-82885000D01*
X147826204Y-82860496D01*
X147829804Y-82836227D01*
X147835765Y-82812429D01*
X147844030Y-82789329D01*
X147854520Y-82767151D01*
X147867133Y-82746107D01*
X147881747Y-82726402D01*
X147898223Y-82708223D01*
X147916402Y-82691747D01*
X147936107Y-82677133D01*
X147957151Y-82664520D01*
X147979329Y-82654030D01*
X148002429Y-82645765D01*
X148026227Y-82639804D01*
X148050496Y-82636204D01*
X148075000Y-82635000D01*
X149325000Y-82635000D01*
X149349504Y-82636204D01*
G37*
G04 #@! TD.AperFunction*
G04 #@! TA.AperFunction,SMDPad,CuDef*
G36*
X149349504Y-79836204D02*
G01*
X149373773Y-79839804D01*
X149397571Y-79845765D01*
X149420671Y-79854030D01*
X149442849Y-79864520D01*
X149463893Y-79877133D01*
X149483598Y-79891747D01*
X149501777Y-79908223D01*
X149518253Y-79926402D01*
X149532867Y-79946107D01*
X149545480Y-79967151D01*
X149555970Y-79989329D01*
X149564235Y-80012429D01*
X149570196Y-80036227D01*
X149573796Y-80060496D01*
X149575000Y-80085000D01*
X149575000Y-80835000D01*
X149573796Y-80859504D01*
X149570196Y-80883773D01*
X149564235Y-80907571D01*
X149555970Y-80930671D01*
X149545480Y-80952849D01*
X149532867Y-80973893D01*
X149518253Y-80993598D01*
X149501777Y-81011777D01*
X149483598Y-81028253D01*
X149463893Y-81042867D01*
X149442849Y-81055480D01*
X149420671Y-81065970D01*
X149397571Y-81074235D01*
X149373773Y-81080196D01*
X149349504Y-81083796D01*
X149325000Y-81085000D01*
X148075000Y-81085000D01*
X148050496Y-81083796D01*
X148026227Y-81080196D01*
X148002429Y-81074235D01*
X147979329Y-81065970D01*
X147957151Y-81055480D01*
X147936107Y-81042867D01*
X147916402Y-81028253D01*
X147898223Y-81011777D01*
X147881747Y-80993598D01*
X147867133Y-80973893D01*
X147854520Y-80952849D01*
X147844030Y-80930671D01*
X147835765Y-80907571D01*
X147829804Y-80883773D01*
X147826204Y-80859504D01*
X147825000Y-80835000D01*
X147825000Y-80085000D01*
X147826204Y-80060496D01*
X147829804Y-80036227D01*
X147835765Y-80012429D01*
X147844030Y-79989329D01*
X147854520Y-79967151D01*
X147867133Y-79946107D01*
X147881747Y-79926402D01*
X147898223Y-79908223D01*
X147916402Y-79891747D01*
X147936107Y-79877133D01*
X147957151Y-79864520D01*
X147979329Y-79854030D01*
X148002429Y-79845765D01*
X148026227Y-79839804D01*
X148050496Y-79836204D01*
X148075000Y-79835000D01*
X149325000Y-79835000D01*
X149349504Y-79836204D01*
G37*
G04 #@! TD.AperFunction*
D11*
X144300000Y-84450000D03*
X146300000Y-85400000D03*
X146300000Y-83500000D03*
G04 #@! TA.AperFunction,SMDPad,CuDef*
D10*
G36*
X142499504Y-84736204D02*
G01*
X142523773Y-84739804D01*
X142547571Y-84745765D01*
X142570671Y-84754030D01*
X142592849Y-84764520D01*
X142613893Y-84777133D01*
X142633598Y-84791747D01*
X142651777Y-84808223D01*
X142668253Y-84826402D01*
X142682867Y-84846107D01*
X142695480Y-84867151D01*
X142705970Y-84889329D01*
X142714235Y-84912429D01*
X142720196Y-84936227D01*
X142723796Y-84960496D01*
X142725000Y-84985000D01*
X142725000Y-85735000D01*
X142723796Y-85759504D01*
X142720196Y-85783773D01*
X142714235Y-85807571D01*
X142705970Y-85830671D01*
X142695480Y-85852849D01*
X142682867Y-85873893D01*
X142668253Y-85893598D01*
X142651777Y-85911777D01*
X142633598Y-85928253D01*
X142613893Y-85942867D01*
X142592849Y-85955480D01*
X142570671Y-85965970D01*
X142547571Y-85974235D01*
X142523773Y-85980196D01*
X142499504Y-85983796D01*
X142475000Y-85985000D01*
X141225000Y-85985000D01*
X141200496Y-85983796D01*
X141176227Y-85980196D01*
X141152429Y-85974235D01*
X141129329Y-85965970D01*
X141107151Y-85955480D01*
X141086107Y-85942867D01*
X141066402Y-85928253D01*
X141048223Y-85911777D01*
X141031747Y-85893598D01*
X141017133Y-85873893D01*
X141004520Y-85852849D01*
X140994030Y-85830671D01*
X140985765Y-85807571D01*
X140979804Y-85783773D01*
X140976204Y-85759504D01*
X140975000Y-85735000D01*
X140975000Y-84985000D01*
X140976204Y-84960496D01*
X140979804Y-84936227D01*
X140985765Y-84912429D01*
X140994030Y-84889329D01*
X141004520Y-84867151D01*
X141017133Y-84846107D01*
X141031747Y-84826402D01*
X141048223Y-84808223D01*
X141066402Y-84791747D01*
X141086107Y-84777133D01*
X141107151Y-84764520D01*
X141129329Y-84754030D01*
X141152429Y-84745765D01*
X141176227Y-84739804D01*
X141200496Y-84736204D01*
X141225000Y-84735000D01*
X142475000Y-84735000D01*
X142499504Y-84736204D01*
G37*
G04 #@! TD.AperFunction*
G04 #@! TA.AperFunction,SMDPad,CuDef*
G36*
X142499504Y-87536204D02*
G01*
X142523773Y-87539804D01*
X142547571Y-87545765D01*
X142570671Y-87554030D01*
X142592849Y-87564520D01*
X142613893Y-87577133D01*
X142633598Y-87591747D01*
X142651777Y-87608223D01*
X142668253Y-87626402D01*
X142682867Y-87646107D01*
X142695480Y-87667151D01*
X142705970Y-87689329D01*
X142714235Y-87712429D01*
X142720196Y-87736227D01*
X142723796Y-87760496D01*
X142725000Y-87785000D01*
X142725000Y-88535000D01*
X142723796Y-88559504D01*
X142720196Y-88583773D01*
X142714235Y-88607571D01*
X142705970Y-88630671D01*
X142695480Y-88652849D01*
X142682867Y-88673893D01*
X142668253Y-88693598D01*
X142651777Y-88711777D01*
X142633598Y-88728253D01*
X142613893Y-88742867D01*
X142592849Y-88755480D01*
X142570671Y-88765970D01*
X142547571Y-88774235D01*
X142523773Y-88780196D01*
X142499504Y-88783796D01*
X142475000Y-88785000D01*
X141225000Y-88785000D01*
X141200496Y-88783796D01*
X141176227Y-88780196D01*
X141152429Y-88774235D01*
X141129329Y-88765970D01*
X141107151Y-88755480D01*
X141086107Y-88742867D01*
X141066402Y-88728253D01*
X141048223Y-88711777D01*
X141031747Y-88693598D01*
X141017133Y-88673893D01*
X141004520Y-88652849D01*
X140994030Y-88630671D01*
X140985765Y-88607571D01*
X140979804Y-88583773D01*
X140976204Y-88559504D01*
X140975000Y-88535000D01*
X140975000Y-87785000D01*
X140976204Y-87760496D01*
X140979804Y-87736227D01*
X140985765Y-87712429D01*
X140994030Y-87689329D01*
X141004520Y-87667151D01*
X141017133Y-87646107D01*
X141031747Y-87626402D01*
X141048223Y-87608223D01*
X141066402Y-87591747D01*
X141086107Y-87577133D01*
X141107151Y-87564520D01*
X141129329Y-87554030D01*
X141152429Y-87545765D01*
X141176227Y-87539804D01*
X141200496Y-87536204D01*
X141225000Y-87535000D01*
X142475000Y-87535000D01*
X142499504Y-87536204D01*
G37*
G04 #@! TD.AperFunction*
G04 #@! TA.AperFunction,SMDPad,CuDef*
G36*
X142499504Y-80136204D02*
G01*
X142523773Y-80139804D01*
X142547571Y-80145765D01*
X142570671Y-80154030D01*
X142592849Y-80164520D01*
X142613893Y-80177133D01*
X142633598Y-80191747D01*
X142651777Y-80208223D01*
X142668253Y-80226402D01*
X142682867Y-80246107D01*
X142695480Y-80267151D01*
X142705970Y-80289329D01*
X142714235Y-80312429D01*
X142720196Y-80336227D01*
X142723796Y-80360496D01*
X142725000Y-80385000D01*
X142725000Y-81135000D01*
X142723796Y-81159504D01*
X142720196Y-81183773D01*
X142714235Y-81207571D01*
X142705970Y-81230671D01*
X142695480Y-81252849D01*
X142682867Y-81273893D01*
X142668253Y-81293598D01*
X142651777Y-81311777D01*
X142633598Y-81328253D01*
X142613893Y-81342867D01*
X142592849Y-81355480D01*
X142570671Y-81365970D01*
X142547571Y-81374235D01*
X142523773Y-81380196D01*
X142499504Y-81383796D01*
X142475000Y-81385000D01*
X141225000Y-81385000D01*
X141200496Y-81383796D01*
X141176227Y-81380196D01*
X141152429Y-81374235D01*
X141129329Y-81365970D01*
X141107151Y-81355480D01*
X141086107Y-81342867D01*
X141066402Y-81328253D01*
X141048223Y-81311777D01*
X141031747Y-81293598D01*
X141017133Y-81273893D01*
X141004520Y-81252849D01*
X140994030Y-81230671D01*
X140985765Y-81207571D01*
X140979804Y-81183773D01*
X140976204Y-81159504D01*
X140975000Y-81135000D01*
X140975000Y-80385000D01*
X140976204Y-80360496D01*
X140979804Y-80336227D01*
X140985765Y-80312429D01*
X140994030Y-80289329D01*
X141004520Y-80267151D01*
X141017133Y-80246107D01*
X141031747Y-80226402D01*
X141048223Y-80208223D01*
X141066402Y-80191747D01*
X141086107Y-80177133D01*
X141107151Y-80164520D01*
X141129329Y-80154030D01*
X141152429Y-80145765D01*
X141176227Y-80139804D01*
X141200496Y-80136204D01*
X141225000Y-80135000D01*
X142475000Y-80135000D01*
X142499504Y-80136204D01*
G37*
G04 #@! TD.AperFunction*
G04 #@! TA.AperFunction,SMDPad,CuDef*
G36*
X142499504Y-82936204D02*
G01*
X142523773Y-82939804D01*
X142547571Y-82945765D01*
X142570671Y-82954030D01*
X142592849Y-82964520D01*
X142613893Y-82977133D01*
X142633598Y-82991747D01*
X142651777Y-83008223D01*
X142668253Y-83026402D01*
X142682867Y-83046107D01*
X142695480Y-83067151D01*
X142705970Y-83089329D01*
X142714235Y-83112429D01*
X142720196Y-83136227D01*
X142723796Y-83160496D01*
X142725000Y-83185000D01*
X142725000Y-83935000D01*
X142723796Y-83959504D01*
X142720196Y-83983773D01*
X142714235Y-84007571D01*
X142705970Y-84030671D01*
X142695480Y-84052849D01*
X142682867Y-84073893D01*
X142668253Y-84093598D01*
X142651777Y-84111777D01*
X142633598Y-84128253D01*
X142613893Y-84142867D01*
X142592849Y-84155480D01*
X142570671Y-84165970D01*
X142547571Y-84174235D01*
X142523773Y-84180196D01*
X142499504Y-84183796D01*
X142475000Y-84185000D01*
X141225000Y-84185000D01*
X141200496Y-84183796D01*
X141176227Y-84180196D01*
X141152429Y-84174235D01*
X141129329Y-84165970D01*
X141107151Y-84155480D01*
X141086107Y-84142867D01*
X141066402Y-84128253D01*
X141048223Y-84111777D01*
X141031747Y-84093598D01*
X141017133Y-84073893D01*
X141004520Y-84052849D01*
X140994030Y-84030671D01*
X140985765Y-84007571D01*
X140979804Y-83983773D01*
X140976204Y-83959504D01*
X140975000Y-83935000D01*
X140975000Y-83185000D01*
X140976204Y-83160496D01*
X140979804Y-83136227D01*
X140985765Y-83112429D01*
X140994030Y-83089329D01*
X141004520Y-83067151D01*
X141017133Y-83046107D01*
X141031747Y-83026402D01*
X141048223Y-83008223D01*
X141066402Y-82991747D01*
X141086107Y-82977133D01*
X141107151Y-82964520D01*
X141129329Y-82954030D01*
X141152429Y-82945765D01*
X141176227Y-82939804D01*
X141200496Y-82936204D01*
X141225000Y-82935000D01*
X142475000Y-82935000D01*
X142499504Y-82936204D01*
G37*
G04 #@! TD.AperFunction*
D12*
X123400000Y-77840000D03*
X123400000Y-80380000D03*
X123400000Y-82920000D03*
X123400000Y-85460000D03*
D13*
X123400000Y-88000000D03*
D14*
X154200000Y-78100000D03*
X154200000Y-83100000D03*
X154200000Y-88100000D03*
D15*
X154200000Y-93100000D03*
D16*
X140200000Y-83800000D03*
X140200000Y-85100000D03*
X145200000Y-97800000D03*
X152550000Y-112800000D03*
X136000000Y-109200000D03*
X142650000Y-109250000D03*
X157800000Y-107600000D03*
X158100000Y-102450000D03*
D17*
X146300000Y-86050000D02*
X146300000Y-85400000D01*
X144190000Y-88160000D02*
X146300000Y-86050000D01*
X141850000Y-88160000D02*
X144190000Y-88160000D01*
X146300000Y-82850000D02*
X146300000Y-83500000D01*
X144210000Y-80760000D02*
X146300000Y-82850000D01*
X141850000Y-80760000D02*
X144210000Y-80760000D01*
D18*
X144210000Y-80760000D02*
X144450000Y-81000000D01*
X148460000Y-83500000D02*
X148700000Y-83260000D01*
D17*
X146300000Y-83500000D02*
X148460000Y-83500000D01*
D18*
X148440000Y-85400000D02*
X148700000Y-85660000D01*
D17*
X146300000Y-85400000D02*
X148440000Y-85400000D01*
D19*
X141580000Y-83830000D02*
X141850000Y-83560000D01*
D18*
X141555000Y-83855000D02*
X141850000Y-83560000D01*
D17*
X141790000Y-85100000D02*
X140400000Y-85100000D01*
X140400000Y-83800000D02*
X141790000Y-83800000D01*
D18*
X144150000Y-84600000D02*
X144300000Y-84450000D01*
X153840000Y-88460000D02*
X154200000Y-88100000D01*
D17*
X148700000Y-88460000D02*
X153840000Y-88460000D01*
X151560000Y-80460000D02*
X148700000Y-80460000D01*
X154200000Y-83100000D02*
X151560000Y-80460000D01*
D20*
G36*
X159648001Y-114648000D02*
G01*
X120352000Y-114648000D01*
X120352000Y-91800000D01*
X152571418Y-91800000D01*
X152571418Y-94400000D01*
X152577732Y-94464103D01*
X152596430Y-94525743D01*
X152626794Y-94582550D01*
X152667657Y-94632343D01*
X152717450Y-94673206D01*
X152774257Y-94703570D01*
X152835897Y-94722268D01*
X152900000Y-94728582D01*
X155500000Y-94728582D01*
X155564103Y-94722268D01*
X155625743Y-94703570D01*
X155682550Y-94673206D01*
X155732343Y-94632343D01*
X155773206Y-94582550D01*
X155803570Y-94525743D01*
X155822268Y-94464103D01*
X155828582Y-94400000D01*
X155828582Y-91800000D01*
X155822268Y-91735897D01*
X155803570Y-91674257D01*
X155773206Y-91617450D01*
X155732343Y-91567657D01*
X155682550Y-91526794D01*
X155625743Y-91496430D01*
X155564103Y-91477732D01*
X155500000Y-91471418D01*
X152900000Y-91471418D01*
X152835897Y-91477732D01*
X152774257Y-91496430D01*
X152717450Y-91526794D01*
X152667657Y-91567657D01*
X152626794Y-91617450D01*
X152596430Y-91674257D01*
X152577732Y-91735897D01*
X152571418Y-91800000D01*
X120352000Y-91800000D01*
X120352000Y-87150000D01*
X122221418Y-87150000D01*
X122221418Y-88850000D01*
X122227732Y-88914103D01*
X122246430Y-88975743D01*
X122276794Y-89032550D01*
X122317657Y-89082343D01*
X122367450Y-89123206D01*
X122424257Y-89153570D01*
X122485897Y-89172268D01*
X122550000Y-89178582D01*
X124250000Y-89178582D01*
X124314103Y-89172268D01*
X124375743Y-89153570D01*
X124432550Y-89123206D01*
X124482343Y-89082343D01*
X124523206Y-89032550D01*
X124553570Y-88975743D01*
X124572268Y-88914103D01*
X124578582Y-88850000D01*
X124578582Y-87785000D01*
X140646418Y-87785000D01*
X140646418Y-88535000D01*
X140657535Y-88647876D01*
X140690460Y-88756414D01*
X140743927Y-88856443D01*
X140815881Y-88944119D01*
X140903557Y-89016073D01*
X141003586Y-89069540D01*
X141112124Y-89102465D01*
X141225000Y-89113582D01*
X142475000Y-89113582D01*
X142587876Y-89102465D01*
X142696414Y-89069540D01*
X142796443Y-89016073D01*
X142884119Y-88944119D01*
X142956073Y-88856443D01*
X142966466Y-88837000D01*
X144156755Y-88837000D01*
X144190000Y-88840274D01*
X144223245Y-88837000D01*
X144223252Y-88837000D01*
X144322715Y-88827204D01*
X144450330Y-88788492D01*
X144567941Y-88725628D01*
X144671027Y-88641027D01*
X144692226Y-88615196D01*
X145222422Y-88085000D01*
X147496418Y-88085000D01*
X147496418Y-88835000D01*
X147507535Y-88947876D01*
X147540460Y-89056414D01*
X147593927Y-89156443D01*
X147665881Y-89244119D01*
X147753557Y-89316073D01*
X147853586Y-89369540D01*
X147962124Y-89402465D01*
X148075000Y-89413582D01*
X149325000Y-89413582D01*
X149437876Y-89402465D01*
X149546414Y-89369540D01*
X149646443Y-89316073D01*
X149734119Y-89244119D01*
X149806073Y-89156443D01*
X149816466Y-89137000D01*
X152936125Y-89137000D01*
X152936227Y-89137152D01*
X153162848Y-89363773D01*
X153429327Y-89541828D01*
X153725422Y-89664475D01*
X154039755Y-89727000D01*
X154360245Y-89727000D01*
X154674578Y-89664475D01*
X154970673Y-89541828D01*
X155237152Y-89363773D01*
X155463773Y-89137152D01*
X155641828Y-88870673D01*
X155764475Y-88574578D01*
X155827000Y-88260245D01*
X155827000Y-87939755D01*
X155764475Y-87625422D01*
X155641828Y-87329327D01*
X155463773Y-87062848D01*
X155237152Y-86836227D01*
X154970673Y-86658172D01*
X154674578Y-86535525D01*
X154360245Y-86473000D01*
X154039755Y-86473000D01*
X153725422Y-86535525D01*
X153429327Y-86658172D01*
X153162848Y-86836227D01*
X152936227Y-87062848D01*
X152758172Y-87329327D01*
X152635525Y-87625422D01*
X152604181Y-87783000D01*
X149816466Y-87783000D01*
X149806073Y-87763557D01*
X149734119Y-87675881D01*
X149646443Y-87603927D01*
X149546414Y-87550460D01*
X149437876Y-87517535D01*
X149325000Y-87506418D01*
X148075000Y-87506418D01*
X147962124Y-87517535D01*
X147853586Y-87550460D01*
X147753557Y-87603927D01*
X147665881Y-87675881D01*
X147593927Y-87763557D01*
X147540460Y-87863586D01*
X147507535Y-87972124D01*
X147496418Y-88085000D01*
X145222422Y-88085000D01*
X146755206Y-86552217D01*
X146781026Y-86531027D01*
X146802218Y-86505205D01*
X146802224Y-86505199D01*
X146865628Y-86427941D01*
X146928492Y-86310330D01*
X146967204Y-86182715D01*
X146977616Y-86077000D01*
X147500555Y-86077000D01*
X147507535Y-86147876D01*
X147540460Y-86256414D01*
X147593927Y-86356443D01*
X147665881Y-86444119D01*
X147753557Y-86516073D01*
X147853586Y-86569540D01*
X147962124Y-86602465D01*
X148075000Y-86613582D01*
X149325000Y-86613582D01*
X149437876Y-86602465D01*
X149546414Y-86569540D01*
X149646443Y-86516073D01*
X149734119Y-86444119D01*
X149806073Y-86356443D01*
X149859540Y-86256414D01*
X149892465Y-86147876D01*
X149903582Y-86035000D01*
X149903582Y-85285000D01*
X149892465Y-85172124D01*
X149859540Y-85063586D01*
X149806073Y-84963557D01*
X149734119Y-84875881D01*
X149646443Y-84803927D01*
X149546414Y-84750460D01*
X149437876Y-84717535D01*
X149325000Y-84706418D01*
X148075000Y-84706418D01*
X147962124Y-84717535D01*
X147944109Y-84723000D01*
X146925452Y-84723000D01*
X146875743Y-84696430D01*
X146814103Y-84677732D01*
X146750000Y-84671418D01*
X145850000Y-84671418D01*
X145785897Y-84677732D01*
X145724257Y-84696430D01*
X145667450Y-84726794D01*
X145617657Y-84767657D01*
X145576794Y-84817450D01*
X145546430Y-84874257D01*
X145527732Y-84935897D01*
X145521418Y-85000000D01*
X145521418Y-85800000D01*
X145527732Y-85864103D01*
X145527905Y-85864672D01*
X143909578Y-87483000D01*
X142966466Y-87483000D01*
X142956073Y-87463557D01*
X142884119Y-87375881D01*
X142796443Y-87303927D01*
X142696414Y-87250460D01*
X142587876Y-87217535D01*
X142475000Y-87206418D01*
X141225000Y-87206418D01*
X141112124Y-87217535D01*
X141003586Y-87250460D01*
X140903557Y-87303927D01*
X140815881Y-87375881D01*
X140743927Y-87463557D01*
X140690460Y-87563586D01*
X140657535Y-87672124D01*
X140646418Y-87785000D01*
X124578582Y-87785000D01*
X124578582Y-87150000D01*
X124572268Y-87085897D01*
X124553570Y-87024257D01*
X124523206Y-86967450D01*
X124482343Y-86917657D01*
X124432550Y-86876794D01*
X124375743Y-86846430D01*
X124314103Y-86827732D01*
X124250000Y-86821418D01*
X122550000Y-86821418D01*
X122485897Y-86827732D01*
X122424257Y-86846430D01*
X122367450Y-86876794D01*
X122317657Y-86917657D01*
X122276794Y-86967450D01*
X122246430Y-87024257D01*
X122227732Y-87085897D01*
X122221418Y-87150000D01*
X120352000Y-87150000D01*
X120352000Y-83276890D01*
X121958524Y-83276890D01*
X122003175Y-83424099D01*
X122128359Y-83686920D01*
X122302412Y-83920269D01*
X122518645Y-84115178D01*
X122768748Y-84264157D01*
X123007179Y-84348736D01*
X122842481Y-84416956D01*
X122649706Y-84545764D01*
X122485764Y-84709706D01*
X122356956Y-84902481D01*
X122268231Y-85116682D01*
X122223000Y-85344076D01*
X122223000Y-85575924D01*
X122268231Y-85803318D01*
X122356956Y-86017519D01*
X122485764Y-86210294D01*
X122649706Y-86374236D01*
X122842481Y-86503044D01*
X123056682Y-86591769D01*
X123284076Y-86637000D01*
X123515924Y-86637000D01*
X123743318Y-86591769D01*
X123957519Y-86503044D01*
X124150294Y-86374236D01*
X124314236Y-86210294D01*
X124443044Y-86017519D01*
X124531769Y-85803318D01*
X124577000Y-85575924D01*
X124577000Y-85344076D01*
X124531769Y-85116682D01*
X124443044Y-84902481D01*
X124314236Y-84709706D01*
X124150294Y-84545764D01*
X123957519Y-84416956D01*
X123792821Y-84348736D01*
X124031252Y-84264157D01*
X124281355Y-84115178D01*
X124497588Y-83920269D01*
X124640703Y-83728397D01*
X139473000Y-83728397D01*
X139473000Y-83871603D01*
X139500938Y-84012058D01*
X139555741Y-84144364D01*
X139635302Y-84263436D01*
X139736564Y-84364698D01*
X139855636Y-84444259D01*
X139869496Y-84450000D01*
X139855636Y-84455741D01*
X139736564Y-84535302D01*
X139635302Y-84636564D01*
X139555741Y-84755636D01*
X139500938Y-84887942D01*
X139473000Y-85028397D01*
X139473000Y-85171603D01*
X139500938Y-85312058D01*
X139555741Y-85444364D01*
X139635302Y-85563436D01*
X139736564Y-85664698D01*
X139855636Y-85744259D01*
X139987942Y-85799062D01*
X140128397Y-85827000D01*
X140271603Y-85827000D01*
X140412058Y-85799062D01*
X140465320Y-85777000D01*
X140650555Y-85777000D01*
X140657535Y-85847876D01*
X140690460Y-85956414D01*
X140743927Y-86056443D01*
X140815881Y-86144119D01*
X140903557Y-86216073D01*
X141003586Y-86269540D01*
X141112124Y-86302465D01*
X141225000Y-86313582D01*
X142475000Y-86313582D01*
X142587876Y-86302465D01*
X142696414Y-86269540D01*
X142796443Y-86216073D01*
X142884119Y-86144119D01*
X142956073Y-86056443D01*
X143009540Y-85956414D01*
X143042465Y-85847876D01*
X143053582Y-85735000D01*
X143053582Y-84985000D01*
X143042465Y-84872124D01*
X143035754Y-84850000D01*
X143211928Y-84850000D01*
X143224188Y-84974482D01*
X143260498Y-85094180D01*
X143319463Y-85204494D01*
X143398815Y-85301185D01*
X143495506Y-85380537D01*
X143605820Y-85439502D01*
X143725518Y-85475812D01*
X143850000Y-85488072D01*
X144014250Y-85485000D01*
X144173000Y-85326250D01*
X144173000Y-84577000D01*
X144427000Y-84577000D01*
X144427000Y-85326250D01*
X144585750Y-85485000D01*
X144750000Y-85488072D01*
X144874482Y-85475812D01*
X144994180Y-85439502D01*
X145104494Y-85380537D01*
X145201185Y-85301185D01*
X145280537Y-85204494D01*
X145339502Y-85094180D01*
X145375812Y-84974482D01*
X145388072Y-84850000D01*
X145385000Y-84735750D01*
X145226250Y-84577000D01*
X144427000Y-84577000D01*
X144173000Y-84577000D01*
X143373750Y-84577000D01*
X143215000Y-84735750D01*
X143211928Y-84850000D01*
X143035754Y-84850000D01*
X143009540Y-84763586D01*
X142956073Y-84663557D01*
X142884119Y-84575881D01*
X142796443Y-84503927D01*
X142714262Y-84460000D01*
X142796443Y-84416073D01*
X142884119Y-84344119D01*
X142956073Y-84256443D01*
X143009540Y-84156414D01*
X143041820Y-84050000D01*
X143211928Y-84050000D01*
X143215000Y-84164250D01*
X143373750Y-84323000D01*
X144173000Y-84323000D01*
X144173000Y-83573750D01*
X144427000Y-83573750D01*
X144427000Y-84323000D01*
X145226250Y-84323000D01*
X145385000Y-84164250D01*
X145388072Y-84050000D01*
X145375812Y-83925518D01*
X145339502Y-83805820D01*
X145280537Y-83695506D01*
X145201185Y-83598815D01*
X145104494Y-83519463D01*
X144994180Y-83460498D01*
X144874482Y-83424188D01*
X144750000Y-83411928D01*
X144585750Y-83415000D01*
X144427000Y-83573750D01*
X144173000Y-83573750D01*
X144014250Y-83415000D01*
X143850000Y-83411928D01*
X143725518Y-83424188D01*
X143605820Y-83460498D01*
X143495506Y-83519463D01*
X143398815Y-83598815D01*
X143319463Y-83695506D01*
X143260498Y-83805820D01*
X143224188Y-83925518D01*
X143211928Y-84050000D01*
X143041820Y-84050000D01*
X143042465Y-84047876D01*
X143053582Y-83935000D01*
X143053582Y-83185000D01*
X143042465Y-83072124D01*
X143009540Y-82963586D01*
X142956073Y-82863557D01*
X142884119Y-82775881D01*
X142796443Y-82703927D01*
X142696414Y-82650460D01*
X142587876Y-82617535D01*
X142475000Y-82606418D01*
X141225000Y-82606418D01*
X141112124Y-82617535D01*
X141003586Y-82650460D01*
X140903557Y-82703927D01*
X140815881Y-82775881D01*
X140743927Y-82863557D01*
X140690460Y-82963586D01*
X140657535Y-83072124D01*
X140652524Y-83123000D01*
X140465320Y-83123000D01*
X140412058Y-83100938D01*
X140271603Y-83073000D01*
X140128397Y-83073000D01*
X139987942Y-83100938D01*
X139855636Y-83155741D01*
X139736564Y-83235302D01*
X139635302Y-83336564D01*
X139555741Y-83455636D01*
X139500938Y-83587942D01*
X139473000Y-83728397D01*
X124640703Y-83728397D01*
X124671641Y-83686920D01*
X124796825Y-83424099D01*
X124841476Y-83276890D01*
X124720155Y-83047000D01*
X123527000Y-83047000D01*
X123527000Y-83067000D01*
X123273000Y-83067000D01*
X123273000Y-83047000D01*
X122079845Y-83047000D01*
X121958524Y-83276890D01*
X120352000Y-83276890D01*
X120352000Y-82563110D01*
X121958524Y-82563110D01*
X122079845Y-82793000D01*
X123273000Y-82793000D01*
X123273000Y-82773000D01*
X123527000Y-82773000D01*
X123527000Y-82793000D01*
X124720155Y-82793000D01*
X124841476Y-82563110D01*
X124796825Y-82415901D01*
X124671641Y-82153080D01*
X124497588Y-81919731D01*
X124281355Y-81724822D01*
X124031252Y-81575843D01*
X123792821Y-81491264D01*
X123957519Y-81423044D01*
X124150294Y-81294236D01*
X124314236Y-81130294D01*
X124443044Y-80937519D01*
X124531769Y-80723318D01*
X124577000Y-80495924D01*
X124577000Y-80385000D01*
X140646418Y-80385000D01*
X140646418Y-81135000D01*
X140657535Y-81247876D01*
X140690460Y-81356414D01*
X140743927Y-81456443D01*
X140815881Y-81544119D01*
X140903557Y-81616073D01*
X141003586Y-81669540D01*
X141112124Y-81702465D01*
X141225000Y-81713582D01*
X142475000Y-81713582D01*
X142587876Y-81702465D01*
X142696414Y-81669540D01*
X142796443Y-81616073D01*
X142884119Y-81544119D01*
X142956073Y-81456443D01*
X142966466Y-81437000D01*
X143929578Y-81437000D01*
X145527905Y-83035327D01*
X145527732Y-83035897D01*
X145521418Y-83100000D01*
X145521418Y-83900000D01*
X145527732Y-83964103D01*
X145546430Y-84025743D01*
X145576794Y-84082550D01*
X145617657Y-84132343D01*
X145667450Y-84173206D01*
X145724257Y-84203570D01*
X145785897Y-84222268D01*
X145850000Y-84228582D01*
X146750000Y-84228582D01*
X146814103Y-84222268D01*
X146875743Y-84203570D01*
X146925452Y-84177000D01*
X147878178Y-84177000D01*
X147962124Y-84202465D01*
X148075000Y-84213582D01*
X149325000Y-84213582D01*
X149437876Y-84202465D01*
X149546414Y-84169540D01*
X149646443Y-84116073D01*
X149734119Y-84044119D01*
X149806073Y-83956443D01*
X149859540Y-83856414D01*
X149892465Y-83747876D01*
X149903582Y-83635000D01*
X149903582Y-82885000D01*
X149892465Y-82772124D01*
X149859540Y-82663586D01*
X149806073Y-82563557D01*
X149734119Y-82475881D01*
X149646443Y-82403927D01*
X149546414Y-82350460D01*
X149437876Y-82317535D01*
X149325000Y-82306418D01*
X148075000Y-82306418D01*
X147962124Y-82317535D01*
X147853586Y-82350460D01*
X147753557Y-82403927D01*
X147665881Y-82475881D01*
X147593927Y-82563557D01*
X147540460Y-82663586D01*
X147507535Y-82772124D01*
X147502524Y-82823000D01*
X146977615Y-82823000D01*
X146977000Y-82816757D01*
X146977000Y-82816748D01*
X146967204Y-82717285D01*
X146928492Y-82589670D01*
X146865628Y-82472059D01*
X146828969Y-82427391D01*
X146802223Y-82394801D01*
X146802222Y-82394800D01*
X146781026Y-82368973D01*
X146755200Y-82347778D01*
X144712226Y-80304804D01*
X144691027Y-80278973D01*
X144587941Y-80194372D01*
X144470330Y-80131508D01*
X144342715Y-80092796D01*
X144263559Y-80085000D01*
X147496418Y-80085000D01*
X147496418Y-80835000D01*
X147507535Y-80947876D01*
X147540460Y-81056414D01*
X147593927Y-81156443D01*
X147665881Y-81244119D01*
X147753557Y-81316073D01*
X147853586Y-81369540D01*
X147962124Y-81402465D01*
X148075000Y-81413582D01*
X149325000Y-81413582D01*
X149437876Y-81402465D01*
X149546414Y-81369540D01*
X149646443Y-81316073D01*
X149734119Y-81244119D01*
X149806073Y-81156443D01*
X149816466Y-81137000D01*
X151279578Y-81137000D01*
X152674326Y-82531749D01*
X152635525Y-82625422D01*
X152573000Y-82939755D01*
X152573000Y-83260245D01*
X152635525Y-83574578D01*
X152758172Y-83870673D01*
X152936227Y-84137152D01*
X153162848Y-84363773D01*
X153429327Y-84541828D01*
X153725422Y-84664475D01*
X154039755Y-84727000D01*
X154360245Y-84727000D01*
X154674578Y-84664475D01*
X154970673Y-84541828D01*
X155237152Y-84363773D01*
X155463773Y-84137152D01*
X155641828Y-83870673D01*
X155764475Y-83574578D01*
X155827000Y-83260245D01*
X155827000Y-82939755D01*
X155764475Y-82625422D01*
X155641828Y-82329327D01*
X155463773Y-82062848D01*
X155237152Y-81836227D01*
X154970673Y-81658172D01*
X154674578Y-81535525D01*
X154360245Y-81473000D01*
X154039755Y-81473000D01*
X153725422Y-81535525D01*
X153631749Y-81574326D01*
X152062226Y-80004804D01*
X152041027Y-79978973D01*
X151937941Y-79894372D01*
X151820330Y-79831508D01*
X151692715Y-79792796D01*
X151593252Y-79783000D01*
X151593245Y-79783000D01*
X151560000Y-79779726D01*
X151526755Y-79783000D01*
X149816466Y-79783000D01*
X149806073Y-79763557D01*
X149734119Y-79675881D01*
X149646443Y-79603927D01*
X149546414Y-79550460D01*
X149437876Y-79517535D01*
X149325000Y-79506418D01*
X148075000Y-79506418D01*
X147962124Y-79517535D01*
X147853586Y-79550460D01*
X147753557Y-79603927D01*
X147665881Y-79675881D01*
X147593927Y-79763557D01*
X147540460Y-79863586D01*
X147507535Y-79972124D01*
X147496418Y-80085000D01*
X144263559Y-80085000D01*
X144243252Y-80083000D01*
X144243245Y-80083000D01*
X144210000Y-80079726D01*
X144176755Y-80083000D01*
X142966466Y-80083000D01*
X142956073Y-80063557D01*
X142884119Y-79975881D01*
X142796443Y-79903927D01*
X142696414Y-79850460D01*
X142587876Y-79817535D01*
X142475000Y-79806418D01*
X141225000Y-79806418D01*
X141112124Y-79817535D01*
X141003586Y-79850460D01*
X140903557Y-79903927D01*
X140815881Y-79975881D01*
X140743927Y-80063557D01*
X140690460Y-80163586D01*
X140657535Y-80272124D01*
X140646418Y-80385000D01*
X124577000Y-80385000D01*
X124577000Y-80264076D01*
X124531769Y-80036682D01*
X124443044Y-79822481D01*
X124314236Y-79629706D01*
X124150294Y-79465764D01*
X124125541Y-79449224D01*
X153030381Y-79449224D01*
X153162317Y-79744312D01*
X153503045Y-79915159D01*
X153870557Y-80016250D01*
X154250729Y-80043701D01*
X154628951Y-79996457D01*
X154990690Y-79876333D01*
X155237683Y-79744312D01*
X155369619Y-79449224D01*
X154200000Y-78279605D01*
X153030381Y-79449224D01*
X124125541Y-79449224D01*
X123957519Y-79336956D01*
X123743318Y-79248231D01*
X123515924Y-79203000D01*
X123284076Y-79203000D01*
X123056682Y-79248231D01*
X122842481Y-79336956D01*
X122649706Y-79465764D01*
X122485764Y-79629706D01*
X122356956Y-79822481D01*
X122268231Y-80036682D01*
X122223000Y-80264076D01*
X122223000Y-80495924D01*
X122268231Y-80723318D01*
X122356956Y-80937519D01*
X122485764Y-81130294D01*
X122649706Y-81294236D01*
X122842481Y-81423044D01*
X123007179Y-81491264D01*
X122768748Y-81575843D01*
X122518645Y-81724822D01*
X122302412Y-81919731D01*
X122128359Y-82153080D01*
X122003175Y-82415901D01*
X121958524Y-82563110D01*
X120352000Y-82563110D01*
X120352000Y-77724076D01*
X122223000Y-77724076D01*
X122223000Y-77955924D01*
X122268231Y-78183318D01*
X122356956Y-78397519D01*
X122485764Y-78590294D01*
X122649706Y-78754236D01*
X122842481Y-78883044D01*
X123056682Y-78971769D01*
X123284076Y-79017000D01*
X123515924Y-79017000D01*
X123743318Y-78971769D01*
X123957519Y-78883044D01*
X124150294Y-78754236D01*
X124314236Y-78590294D01*
X124443044Y-78397519D01*
X124531769Y-78183318D01*
X124538251Y-78150729D01*
X152256299Y-78150729D01*
X152303543Y-78528951D01*
X152423667Y-78890690D01*
X152555688Y-79137683D01*
X152850776Y-79269619D01*
X154020395Y-78100000D01*
X154379605Y-78100000D01*
X155549224Y-79269619D01*
X155844312Y-79137683D01*
X156015159Y-78796955D01*
X156116250Y-78429443D01*
X156143701Y-78049271D01*
X156096457Y-77671049D01*
X155976333Y-77309310D01*
X155844312Y-77062317D01*
X155549224Y-76930381D01*
X154379605Y-78100000D01*
X154020395Y-78100000D01*
X152850776Y-76930381D01*
X152555688Y-77062317D01*
X152384841Y-77403045D01*
X152283750Y-77770557D01*
X152256299Y-78150729D01*
X124538251Y-78150729D01*
X124577000Y-77955924D01*
X124577000Y-77724076D01*
X124531769Y-77496682D01*
X124443044Y-77282481D01*
X124314236Y-77089706D01*
X124150294Y-76925764D01*
X123957519Y-76796956D01*
X123846031Y-76750776D01*
X153030381Y-76750776D01*
X154200000Y-77920395D01*
X155369619Y-76750776D01*
X155237683Y-76455688D01*
X154896955Y-76284841D01*
X154529443Y-76183750D01*
X154149271Y-76156299D01*
X153771049Y-76203543D01*
X153409310Y-76323667D01*
X153162317Y-76455688D01*
X153030381Y-76750776D01*
X123846031Y-76750776D01*
X123743318Y-76708231D01*
X123515924Y-76663000D01*
X123284076Y-76663000D01*
X123056682Y-76708231D01*
X122842481Y-76796956D01*
X122649706Y-76925764D01*
X122485764Y-77089706D01*
X122356956Y-77282481D01*
X122268231Y-77496682D01*
X122223000Y-77724076D01*
X120352000Y-77724076D01*
X120352000Y-75352000D01*
X159648000Y-75352000D01*
X159648001Y-114648000D01*
G37*
X159648001Y-114648000D02*
X120352000Y-114648000D01*
X120352000Y-91800000D01*
X152571418Y-91800000D01*
X152571418Y-94400000D01*
X152577732Y-94464103D01*
X152596430Y-94525743D01*
X152626794Y-94582550D01*
X152667657Y-94632343D01*
X152717450Y-94673206D01*
X152774257Y-94703570D01*
X152835897Y-94722268D01*
X152900000Y-94728582D01*
X155500000Y-94728582D01*
X155564103Y-94722268D01*
X155625743Y-94703570D01*
X155682550Y-94673206D01*
X155732343Y-94632343D01*
X155773206Y-94582550D01*
X155803570Y-94525743D01*
X155822268Y-94464103D01*
X155828582Y-94400000D01*
X155828582Y-91800000D01*
X155822268Y-91735897D01*
X155803570Y-91674257D01*
X155773206Y-91617450D01*
X155732343Y-91567657D01*
X155682550Y-91526794D01*
X155625743Y-91496430D01*
X155564103Y-91477732D01*
X155500000Y-91471418D01*
X152900000Y-91471418D01*
X152835897Y-91477732D01*
X152774257Y-91496430D01*
X152717450Y-91526794D01*
X152667657Y-91567657D01*
X152626794Y-91617450D01*
X152596430Y-91674257D01*
X152577732Y-91735897D01*
X152571418Y-91800000D01*
X120352000Y-91800000D01*
X120352000Y-87150000D01*
X122221418Y-87150000D01*
X122221418Y-88850000D01*
X122227732Y-88914103D01*
X122246430Y-88975743D01*
X122276794Y-89032550D01*
X122317657Y-89082343D01*
X122367450Y-89123206D01*
X122424257Y-89153570D01*
X122485897Y-89172268D01*
X122550000Y-89178582D01*
X124250000Y-89178582D01*
X124314103Y-89172268D01*
X124375743Y-89153570D01*
X124432550Y-89123206D01*
X124482343Y-89082343D01*
X124523206Y-89032550D01*
X124553570Y-88975743D01*
X124572268Y-88914103D01*
X124578582Y-88850000D01*
X124578582Y-87785000D01*
X140646418Y-87785000D01*
X140646418Y-88535000D01*
X140657535Y-88647876D01*
X140690460Y-88756414D01*
X140743927Y-88856443D01*
X140815881Y-88944119D01*
X140903557Y-89016073D01*
X141003586Y-89069540D01*
X141112124Y-89102465D01*
X141225000Y-89113582D01*
X142475000Y-89113582D01*
X142587876Y-89102465D01*
X142696414Y-89069540D01*
X142796443Y-89016073D01*
X142884119Y-88944119D01*
X142956073Y-88856443D01*
X142966466Y-88837000D01*
X144156755Y-88837000D01*
X144190000Y-88840274D01*
X144223245Y-88837000D01*
X144223252Y-88837000D01*
X144322715Y-88827204D01*
X144450330Y-88788492D01*
X144567941Y-88725628D01*
X144671027Y-88641027D01*
X144692226Y-88615196D01*
X145222422Y-88085000D01*
X147496418Y-88085000D01*
X147496418Y-88835000D01*
X147507535Y-88947876D01*
X147540460Y-89056414D01*
X147593927Y-89156443D01*
X147665881Y-89244119D01*
X147753557Y-89316073D01*
X147853586Y-89369540D01*
X147962124Y-89402465D01*
X148075000Y-89413582D01*
X149325000Y-89413582D01*
X149437876Y-89402465D01*
X149546414Y-89369540D01*
X149646443Y-89316073D01*
X149734119Y-89244119D01*
X149806073Y-89156443D01*
X149816466Y-89137000D01*
X152936125Y-89137000D01*
X152936227Y-89137152D01*
X153162848Y-89363773D01*
X153429327Y-89541828D01*
X153725422Y-89664475D01*
X154039755Y-89727000D01*
X154360245Y-89727000D01*
X154674578Y-89664475D01*
X154970673Y-89541828D01*
X155237152Y-89363773D01*
X155463773Y-89137152D01*
X155641828Y-88870673D01*
X155764475Y-88574578D01*
X155827000Y-88260245D01*
X155827000Y-87939755D01*
X155764475Y-87625422D01*
X155641828Y-87329327D01*
X155463773Y-87062848D01*
X155237152Y-86836227D01*
X154970673Y-86658172D01*
X154674578Y-86535525D01*
X154360245Y-86473000D01*
X154039755Y-86473000D01*
X153725422Y-86535525D01*
X153429327Y-86658172D01*
X153162848Y-86836227D01*
X152936227Y-87062848D01*
X152758172Y-87329327D01*
X152635525Y-87625422D01*
X152604181Y-87783000D01*
X149816466Y-87783000D01*
X149806073Y-87763557D01*
X149734119Y-87675881D01*
X149646443Y-87603927D01*
X149546414Y-87550460D01*
X149437876Y-87517535D01*
X149325000Y-87506418D01*
X148075000Y-87506418D01*
X147962124Y-87517535D01*
X147853586Y-87550460D01*
X147753557Y-87603927D01*
X147665881Y-87675881D01*
X147593927Y-87763557D01*
X147540460Y-87863586D01*
X147507535Y-87972124D01*
X147496418Y-88085000D01*
X145222422Y-88085000D01*
X146755206Y-86552217D01*
X146781026Y-86531027D01*
X146802218Y-86505205D01*
X146802224Y-86505199D01*
X146865628Y-86427941D01*
X146928492Y-86310330D01*
X146967204Y-86182715D01*
X146977616Y-86077000D01*
X147500555Y-86077000D01*
X147507535Y-86147876D01*
X147540460Y-86256414D01*
X147593927Y-86356443D01*
X147665881Y-86444119D01*
X147753557Y-86516073D01*
X147853586Y-86569540D01*
X147962124Y-86602465D01*
X148075000Y-86613582D01*
X149325000Y-86613582D01*
X149437876Y-86602465D01*
X149546414Y-86569540D01*
X149646443Y-86516073D01*
X149734119Y-86444119D01*
X149806073Y-86356443D01*
X149859540Y-86256414D01*
X149892465Y-86147876D01*
X149903582Y-86035000D01*
X149903582Y-85285000D01*
X149892465Y-85172124D01*
X149859540Y-85063586D01*
X149806073Y-84963557D01*
X149734119Y-84875881D01*
X149646443Y-84803927D01*
X149546414Y-84750460D01*
X149437876Y-84717535D01*
X149325000Y-84706418D01*
X148075000Y-84706418D01*
X147962124Y-84717535D01*
X147944109Y-84723000D01*
X146925452Y-84723000D01*
X146875743Y-84696430D01*
X146814103Y-84677732D01*
X146750000Y-84671418D01*
X145850000Y-84671418D01*
X145785897Y-84677732D01*
X145724257Y-84696430D01*
X145667450Y-84726794D01*
X145617657Y-84767657D01*
X145576794Y-84817450D01*
X145546430Y-84874257D01*
X145527732Y-84935897D01*
X145521418Y-85000000D01*
X145521418Y-85800000D01*
X145527732Y-85864103D01*
X145527905Y-85864672D01*
X143909578Y-87483000D01*
X142966466Y-87483000D01*
X142956073Y-87463557D01*
X142884119Y-87375881D01*
X142796443Y-87303927D01*
X142696414Y-87250460D01*
X142587876Y-87217535D01*
X142475000Y-87206418D01*
X141225000Y-87206418D01*
X141112124Y-87217535D01*
X141003586Y-87250460D01*
X140903557Y-87303927D01*
X140815881Y-87375881D01*
X140743927Y-87463557D01*
X140690460Y-87563586D01*
X140657535Y-87672124D01*
X140646418Y-87785000D01*
X124578582Y-87785000D01*
X124578582Y-87150000D01*
X124572268Y-87085897D01*
X124553570Y-87024257D01*
X124523206Y-86967450D01*
X124482343Y-86917657D01*
X124432550Y-86876794D01*
X124375743Y-86846430D01*
X124314103Y-86827732D01*
X124250000Y-86821418D01*
X122550000Y-86821418D01*
X122485897Y-86827732D01*
X122424257Y-86846430D01*
X122367450Y-86876794D01*
X122317657Y-86917657D01*
X122276794Y-86967450D01*
X122246430Y-87024257D01*
X122227732Y-87085897D01*
X122221418Y-87150000D01*
X120352000Y-87150000D01*
X120352000Y-83276890D01*
X121958524Y-83276890D01*
X122003175Y-83424099D01*
X122128359Y-83686920D01*
X122302412Y-83920269D01*
X122518645Y-84115178D01*
X122768748Y-84264157D01*
X123007179Y-84348736D01*
X122842481Y-84416956D01*
X122649706Y-84545764D01*
X122485764Y-84709706D01*
X122356956Y-84902481D01*
X122268231Y-85116682D01*
X122223000Y-85344076D01*
X122223000Y-85575924D01*
X122268231Y-85803318D01*
X122356956Y-86017519D01*
X122485764Y-86210294D01*
X122649706Y-86374236D01*
X122842481Y-86503044D01*
X123056682Y-86591769D01*
X123284076Y-86637000D01*
X123515924Y-86637000D01*
X123743318Y-86591769D01*
X123957519Y-86503044D01*
X124150294Y-86374236D01*
X124314236Y-86210294D01*
X124443044Y-86017519D01*
X124531769Y-85803318D01*
X124577000Y-85575924D01*
X124577000Y-85344076D01*
X124531769Y-85116682D01*
X124443044Y-84902481D01*
X124314236Y-84709706D01*
X124150294Y-84545764D01*
X123957519Y-84416956D01*
X123792821Y-84348736D01*
X124031252Y-84264157D01*
X124281355Y-84115178D01*
X124497588Y-83920269D01*
X124640703Y-83728397D01*
X139473000Y-83728397D01*
X139473000Y-83871603D01*
X139500938Y-84012058D01*
X139555741Y-84144364D01*
X139635302Y-84263436D01*
X139736564Y-84364698D01*
X139855636Y-84444259D01*
X139869496Y-84450000D01*
X139855636Y-84455741D01*
X139736564Y-84535302D01*
X139635302Y-84636564D01*
X139555741Y-84755636D01*
X139500938Y-84887942D01*
X139473000Y-85028397D01*
X139473000Y-85171603D01*
X139500938Y-85312058D01*
X139555741Y-85444364D01*
X139635302Y-85563436D01*
X139736564Y-85664698D01*
X139855636Y-85744259D01*
X139987942Y-85799062D01*
X140128397Y-85827000D01*
X140271603Y-85827000D01*
X140412058Y-85799062D01*
X140465320Y-85777000D01*
X140650555Y-85777000D01*
X140657535Y-85847876D01*
X140690460Y-85956414D01*
X140743927Y-86056443D01*
X140815881Y-86144119D01*
X140903557Y-86216073D01*
X141003586Y-86269540D01*
X141112124Y-86302465D01*
X141225000Y-86313582D01*
X142475000Y-86313582D01*
X142587876Y-86302465D01*
X142696414Y-86269540D01*
X142796443Y-86216073D01*
X142884119Y-86144119D01*
X142956073Y-86056443D01*
X143009540Y-85956414D01*
X143042465Y-85847876D01*
X143053582Y-85735000D01*
X143053582Y-84985000D01*
X143042465Y-84872124D01*
X143035754Y-84850000D01*
X143211928Y-84850000D01*
X143224188Y-84974482D01*
X143260498Y-85094180D01*
X143319463Y-85204494D01*
X143398815Y-85301185D01*
X143495506Y-85380537D01*
X143605820Y-85439502D01*
X143725518Y-85475812D01*
X143850000Y-85488072D01*
X144014250Y-85485000D01*
X144173000Y-85326250D01*
X144173000Y-84577000D01*
X144427000Y-84577000D01*
X144427000Y-85326250D01*
X144585750Y-85485000D01*
X144750000Y-85488072D01*
X144874482Y-85475812D01*
X144994180Y-85439502D01*
X145104494Y-85380537D01*
X145201185Y-85301185D01*
X145280537Y-85204494D01*
X145339502Y-85094180D01*
X145375812Y-84974482D01*
X145388072Y-84850000D01*
X145385000Y-84735750D01*
X145226250Y-84577000D01*
X144427000Y-84577000D01*
X144173000Y-84577000D01*
X143373750Y-84577000D01*
X143215000Y-84735750D01*
X143211928Y-84850000D01*
X143035754Y-84850000D01*
X143009540Y-84763586D01*
X142956073Y-84663557D01*
X142884119Y-84575881D01*
X142796443Y-84503927D01*
X142714262Y-84460000D01*
X142796443Y-84416073D01*
X142884119Y-84344119D01*
X142956073Y-84256443D01*
X143009540Y-84156414D01*
X143041820Y-84050000D01*
X143211928Y-84050000D01*
X143215000Y-84164250D01*
X143373750Y-84323000D01*
X144173000Y-84323000D01*
X144173000Y-83573750D01*
X144427000Y-83573750D01*
X144427000Y-84323000D01*
X145226250Y-84323000D01*
X145385000Y-84164250D01*
X145388072Y-84050000D01*
X145375812Y-83925518D01*
X145339502Y-83805820D01*
X145280537Y-83695506D01*
X145201185Y-83598815D01*
X145104494Y-83519463D01*
X144994180Y-83460498D01*
X144874482Y-83424188D01*
X144750000Y-83411928D01*
X144585750Y-83415000D01*
X144427000Y-83573750D01*
X144173000Y-83573750D01*
X144014250Y-83415000D01*
X143850000Y-83411928D01*
X143725518Y-83424188D01*
X143605820Y-83460498D01*
X143495506Y-83519463D01*
X143398815Y-83598815D01*
X143319463Y-83695506D01*
X143260498Y-83805820D01*
X143224188Y-83925518D01*
X143211928Y-84050000D01*
X143041820Y-84050000D01*
X143042465Y-84047876D01*
X143053582Y-83935000D01*
X143053582Y-83185000D01*
X143042465Y-83072124D01*
X143009540Y-82963586D01*
X142956073Y-82863557D01*
X142884119Y-82775881D01*
X142796443Y-82703927D01*
X142696414Y-82650460D01*
X142587876Y-82617535D01*
X142475000Y-82606418D01*
X141225000Y-82606418D01*
X141112124Y-82617535D01*
X141003586Y-82650460D01*
X140903557Y-82703927D01*
X140815881Y-82775881D01*
X140743927Y-82863557D01*
X140690460Y-82963586D01*
X140657535Y-83072124D01*
X140652524Y-83123000D01*
X140465320Y-83123000D01*
X140412058Y-83100938D01*
X140271603Y-83073000D01*
X140128397Y-83073000D01*
X139987942Y-83100938D01*
X139855636Y-83155741D01*
X139736564Y-83235302D01*
X139635302Y-83336564D01*
X139555741Y-83455636D01*
X139500938Y-83587942D01*
X139473000Y-83728397D01*
X124640703Y-83728397D01*
X124671641Y-83686920D01*
X124796825Y-83424099D01*
X124841476Y-83276890D01*
X124720155Y-83047000D01*
X123527000Y-83047000D01*
X123527000Y-83067000D01*
X123273000Y-83067000D01*
X123273000Y-83047000D01*
X122079845Y-83047000D01*
X121958524Y-83276890D01*
X120352000Y-83276890D01*
X120352000Y-82563110D01*
X121958524Y-82563110D01*
X122079845Y-82793000D01*
X123273000Y-82793000D01*
X123273000Y-82773000D01*
X123527000Y-82773000D01*
X123527000Y-82793000D01*
X124720155Y-82793000D01*
X124841476Y-82563110D01*
X124796825Y-82415901D01*
X124671641Y-82153080D01*
X124497588Y-81919731D01*
X124281355Y-81724822D01*
X124031252Y-81575843D01*
X123792821Y-81491264D01*
X123957519Y-81423044D01*
X124150294Y-81294236D01*
X124314236Y-81130294D01*
X124443044Y-80937519D01*
X124531769Y-80723318D01*
X124577000Y-80495924D01*
X124577000Y-80385000D01*
X140646418Y-80385000D01*
X140646418Y-81135000D01*
X140657535Y-81247876D01*
X140690460Y-81356414D01*
X140743927Y-81456443D01*
X140815881Y-81544119D01*
X140903557Y-81616073D01*
X141003586Y-81669540D01*
X141112124Y-81702465D01*
X141225000Y-81713582D01*
X142475000Y-81713582D01*
X142587876Y-81702465D01*
X142696414Y-81669540D01*
X142796443Y-81616073D01*
X142884119Y-81544119D01*
X142956073Y-81456443D01*
X142966466Y-81437000D01*
X143929578Y-81437000D01*
X145527905Y-83035327D01*
X145527732Y-83035897D01*
X145521418Y-83100000D01*
X145521418Y-83900000D01*
X145527732Y-83964103D01*
X145546430Y-84025743D01*
X145576794Y-84082550D01*
X145617657Y-84132343D01*
X145667450Y-84173206D01*
X145724257Y-84203570D01*
X145785897Y-84222268D01*
X145850000Y-84228582D01*
X146750000Y-84228582D01*
X146814103Y-84222268D01*
X146875743Y-84203570D01*
X146925452Y-84177000D01*
X147878178Y-84177000D01*
X147962124Y-84202465D01*
X148075000Y-84213582D01*
X149325000Y-84213582D01*
X149437876Y-84202465D01*
X149546414Y-84169540D01*
X149646443Y-84116073D01*
X149734119Y-84044119D01*
X149806073Y-83956443D01*
X149859540Y-83856414D01*
X149892465Y-83747876D01*
X149903582Y-83635000D01*
X149903582Y-82885000D01*
X149892465Y-82772124D01*
X149859540Y-82663586D01*
X149806073Y-82563557D01*
X149734119Y-82475881D01*
X149646443Y-82403927D01*
X149546414Y-82350460D01*
X149437876Y-82317535D01*
X149325000Y-82306418D01*
X148075000Y-82306418D01*
X147962124Y-82317535D01*
X147853586Y-82350460D01*
X147753557Y-82403927D01*
X147665881Y-82475881D01*
X147593927Y-82563557D01*
X147540460Y-82663586D01*
X147507535Y-82772124D01*
X147502524Y-82823000D01*
X146977615Y-82823000D01*
X146977000Y-82816757D01*
X146977000Y-82816748D01*
X146967204Y-82717285D01*
X146928492Y-82589670D01*
X146865628Y-82472059D01*
X146828969Y-82427391D01*
X146802223Y-82394801D01*
X146802222Y-82394800D01*
X146781026Y-82368973D01*
X146755200Y-82347778D01*
X144712226Y-80304804D01*
X144691027Y-80278973D01*
X144587941Y-80194372D01*
X144470330Y-80131508D01*
X144342715Y-80092796D01*
X144263559Y-80085000D01*
X147496418Y-80085000D01*
X147496418Y-80835000D01*
X147507535Y-80947876D01*
X147540460Y-81056414D01*
X147593927Y-81156443D01*
X147665881Y-81244119D01*
X147753557Y-81316073D01*
X147853586Y-81369540D01*
X147962124Y-81402465D01*
X148075000Y-81413582D01*
X149325000Y-81413582D01*
X149437876Y-81402465D01*
X149546414Y-81369540D01*
X149646443Y-81316073D01*
X149734119Y-81244119D01*
X149806073Y-81156443D01*
X149816466Y-81137000D01*
X151279578Y-81137000D01*
X152674326Y-82531749D01*
X152635525Y-82625422D01*
X152573000Y-82939755D01*
X152573000Y-83260245D01*
X152635525Y-83574578D01*
X152758172Y-83870673D01*
X152936227Y-84137152D01*
X153162848Y-84363773D01*
X153429327Y-84541828D01*
X153725422Y-84664475D01*
X154039755Y-84727000D01*
X154360245Y-84727000D01*
X154674578Y-84664475D01*
X154970673Y-84541828D01*
X155237152Y-84363773D01*
X155463773Y-84137152D01*
X155641828Y-83870673D01*
X155764475Y-83574578D01*
X155827000Y-83260245D01*
X155827000Y-82939755D01*
X155764475Y-82625422D01*
X155641828Y-82329327D01*
X155463773Y-82062848D01*
X155237152Y-81836227D01*
X154970673Y-81658172D01*
X154674578Y-81535525D01*
X154360245Y-81473000D01*
X154039755Y-81473000D01*
X153725422Y-81535525D01*
X153631749Y-81574326D01*
X152062226Y-80004804D01*
X152041027Y-79978973D01*
X151937941Y-79894372D01*
X151820330Y-79831508D01*
X151692715Y-79792796D01*
X151593252Y-79783000D01*
X151593245Y-79783000D01*
X151560000Y-79779726D01*
X151526755Y-79783000D01*
X149816466Y-79783000D01*
X149806073Y-79763557D01*
X149734119Y-79675881D01*
X149646443Y-79603927D01*
X149546414Y-79550460D01*
X149437876Y-79517535D01*
X149325000Y-79506418D01*
X148075000Y-79506418D01*
X147962124Y-79517535D01*
X147853586Y-79550460D01*
X147753557Y-79603927D01*
X147665881Y-79675881D01*
X147593927Y-79763557D01*
X147540460Y-79863586D01*
X147507535Y-79972124D01*
X147496418Y-80085000D01*
X144263559Y-80085000D01*
X144243252Y-80083000D01*
X144243245Y-80083000D01*
X144210000Y-80079726D01*
X144176755Y-80083000D01*
X142966466Y-80083000D01*
X142956073Y-80063557D01*
X142884119Y-79975881D01*
X142796443Y-79903927D01*
X142696414Y-79850460D01*
X142587876Y-79817535D01*
X142475000Y-79806418D01*
X141225000Y-79806418D01*
X141112124Y-79817535D01*
X141003586Y-79850460D01*
X140903557Y-79903927D01*
X140815881Y-79975881D01*
X140743927Y-80063557D01*
X140690460Y-80163586D01*
X140657535Y-80272124D01*
X140646418Y-80385000D01*
X124577000Y-80385000D01*
X124577000Y-80264076D01*
X124531769Y-80036682D01*
X124443044Y-79822481D01*
X124314236Y-79629706D01*
X124150294Y-79465764D01*
X124125541Y-79449224D01*
X153030381Y-79449224D01*
X153162317Y-79744312D01*
X153503045Y-79915159D01*
X153870557Y-80016250D01*
X154250729Y-80043701D01*
X154628951Y-79996457D01*
X154990690Y-79876333D01*
X155237683Y-79744312D01*
X155369619Y-79449224D01*
X154200000Y-78279605D01*
X153030381Y-79449224D01*
X124125541Y-79449224D01*
X123957519Y-79336956D01*
X123743318Y-79248231D01*
X123515924Y-79203000D01*
X123284076Y-79203000D01*
X123056682Y-79248231D01*
X122842481Y-79336956D01*
X122649706Y-79465764D01*
X122485764Y-79629706D01*
X122356956Y-79822481D01*
X122268231Y-80036682D01*
X122223000Y-80264076D01*
X122223000Y-80495924D01*
X122268231Y-80723318D01*
X122356956Y-80937519D01*
X122485764Y-81130294D01*
X122649706Y-81294236D01*
X122842481Y-81423044D01*
X123007179Y-81491264D01*
X122768748Y-81575843D01*
X122518645Y-81724822D01*
X122302412Y-81919731D01*
X122128359Y-82153080D01*
X122003175Y-82415901D01*
X121958524Y-82563110D01*
X120352000Y-82563110D01*
X120352000Y-77724076D01*
X122223000Y-77724076D01*
X122223000Y-77955924D01*
X122268231Y-78183318D01*
X122356956Y-78397519D01*
X122485764Y-78590294D01*
X122649706Y-78754236D01*
X122842481Y-78883044D01*
X123056682Y-78971769D01*
X123284076Y-79017000D01*
X123515924Y-79017000D01*
X123743318Y-78971769D01*
X123957519Y-78883044D01*
X124150294Y-78754236D01*
X124314236Y-78590294D01*
X124443044Y-78397519D01*
X124531769Y-78183318D01*
X124538251Y-78150729D01*
X152256299Y-78150729D01*
X152303543Y-78528951D01*
X152423667Y-78890690D01*
X152555688Y-79137683D01*
X152850776Y-79269619D01*
X154020395Y-78100000D01*
X154379605Y-78100000D01*
X155549224Y-79269619D01*
X155844312Y-79137683D01*
X156015159Y-78796955D01*
X156116250Y-78429443D01*
X156143701Y-78049271D01*
X156096457Y-77671049D01*
X155976333Y-77309310D01*
X155844312Y-77062317D01*
X155549224Y-76930381D01*
X154379605Y-78100000D01*
X154020395Y-78100000D01*
X152850776Y-76930381D01*
X152555688Y-77062317D01*
X152384841Y-77403045D01*
X152283750Y-77770557D01*
X152256299Y-78150729D01*
X124538251Y-78150729D01*
X124577000Y-77955924D01*
X124577000Y-77724076D01*
X124531769Y-77496682D01*
X124443044Y-77282481D01*
X124314236Y-77089706D01*
X124150294Y-76925764D01*
X123957519Y-76796956D01*
X123846031Y-76750776D01*
X153030381Y-76750776D01*
X154200000Y-77920395D01*
X155369619Y-76750776D01*
X155237683Y-76455688D01*
X154896955Y-76284841D01*
X154529443Y-76183750D01*
X154149271Y-76156299D01*
X153771049Y-76203543D01*
X153409310Y-76323667D01*
X153162317Y-76455688D01*
X153030381Y-76750776D01*
X123846031Y-76750776D01*
X123743318Y-76708231D01*
X123515924Y-76663000D01*
X123284076Y-76663000D01*
X123056682Y-76708231D01*
X122842481Y-76796956D01*
X122649706Y-76925764D01*
X122485764Y-77089706D01*
X122356956Y-77282481D01*
X122268231Y-77496682D01*
X122223000Y-77724076D01*
X120352000Y-77724076D01*
X120352000Y-75352000D01*
X159648000Y-75352000D01*
X159648001Y-114648000D01*
M02*
