G04 #@! TF.GenerationSoftware,KiCad,Pcbnew,(5.1.5)-3*
G04 #@! TF.CreationDate,2020-03-21T18:19:31+03:00*
G04 #@! TF.ProjectId,CAN+Power v0.1,43414e2b-506f-4776-9572-2076302e312e,rev?*
G04 #@! TF.SameCoordinates,Original*
G04 #@! TF.FileFunction,Paste,Top*
G04 #@! TF.FilePolarity,Positive*
%FSLAX46Y46*%
G04 Gerber Fmt 4.6, Leading zero omitted, Abs format (unit mm)*
G04 Created by KiCad (PCBNEW (5.1.5)-3) date 2020-03-21 18:19:31*
%MOMM*%
%LPD*%
G04 APERTURE LIST*
%ADD10C,0.100000*%
%ADD11R,2.500000X1.800000*%
%ADD12R,2.700000X3.600000*%
G04 APERTURE END LIST*
D10*
G36*
X129449504Y-84976204D02*
G01*
X129473773Y-84979804D01*
X129497571Y-84985765D01*
X129520671Y-84994030D01*
X129542849Y-85004520D01*
X129563893Y-85017133D01*
X129583598Y-85031747D01*
X129601777Y-85048223D01*
X129618253Y-85066402D01*
X129632867Y-85086107D01*
X129645480Y-85107151D01*
X129655970Y-85129329D01*
X129664235Y-85152429D01*
X129670196Y-85176227D01*
X129673796Y-85200496D01*
X129675000Y-85225000D01*
X129675000Y-85975000D01*
X129673796Y-85999504D01*
X129670196Y-86023773D01*
X129664235Y-86047571D01*
X129655970Y-86070671D01*
X129645480Y-86092849D01*
X129632867Y-86113893D01*
X129618253Y-86133598D01*
X129601777Y-86151777D01*
X129583598Y-86168253D01*
X129563893Y-86182867D01*
X129542849Y-86195480D01*
X129520671Y-86205970D01*
X129497571Y-86214235D01*
X129473773Y-86220196D01*
X129449504Y-86223796D01*
X129425000Y-86225000D01*
X128175000Y-86225000D01*
X128150496Y-86223796D01*
X128126227Y-86220196D01*
X128102429Y-86214235D01*
X128079329Y-86205970D01*
X128057151Y-86195480D01*
X128036107Y-86182867D01*
X128016402Y-86168253D01*
X127998223Y-86151777D01*
X127981747Y-86133598D01*
X127967133Y-86113893D01*
X127954520Y-86092849D01*
X127944030Y-86070671D01*
X127935765Y-86047571D01*
X127929804Y-86023773D01*
X127926204Y-85999504D01*
X127925000Y-85975000D01*
X127925000Y-85225000D01*
X127926204Y-85200496D01*
X127929804Y-85176227D01*
X127935765Y-85152429D01*
X127944030Y-85129329D01*
X127954520Y-85107151D01*
X127967133Y-85086107D01*
X127981747Y-85066402D01*
X127998223Y-85048223D01*
X128016402Y-85031747D01*
X128036107Y-85017133D01*
X128057151Y-85004520D01*
X128079329Y-84994030D01*
X128102429Y-84985765D01*
X128126227Y-84979804D01*
X128150496Y-84976204D01*
X128175000Y-84975000D01*
X129425000Y-84975000D01*
X129449504Y-84976204D01*
G37*
G36*
X129449504Y-82176204D02*
G01*
X129473773Y-82179804D01*
X129497571Y-82185765D01*
X129520671Y-82194030D01*
X129542849Y-82204520D01*
X129563893Y-82217133D01*
X129583598Y-82231747D01*
X129601777Y-82248223D01*
X129618253Y-82266402D01*
X129632867Y-82286107D01*
X129645480Y-82307151D01*
X129655970Y-82329329D01*
X129664235Y-82352429D01*
X129670196Y-82376227D01*
X129673796Y-82400496D01*
X129675000Y-82425000D01*
X129675000Y-83175000D01*
X129673796Y-83199504D01*
X129670196Y-83223773D01*
X129664235Y-83247571D01*
X129655970Y-83270671D01*
X129645480Y-83292849D01*
X129632867Y-83313893D01*
X129618253Y-83333598D01*
X129601777Y-83351777D01*
X129583598Y-83368253D01*
X129563893Y-83382867D01*
X129542849Y-83395480D01*
X129520671Y-83405970D01*
X129497571Y-83414235D01*
X129473773Y-83420196D01*
X129449504Y-83423796D01*
X129425000Y-83425000D01*
X128175000Y-83425000D01*
X128150496Y-83423796D01*
X128126227Y-83420196D01*
X128102429Y-83414235D01*
X128079329Y-83405970D01*
X128057151Y-83395480D01*
X128036107Y-83382867D01*
X128016402Y-83368253D01*
X127998223Y-83351777D01*
X127981747Y-83333598D01*
X127967133Y-83313893D01*
X127954520Y-83292849D01*
X127944030Y-83270671D01*
X127935765Y-83247571D01*
X127929804Y-83223773D01*
X127926204Y-83199504D01*
X127925000Y-83175000D01*
X127925000Y-82425000D01*
X127926204Y-82400496D01*
X127929804Y-82376227D01*
X127935765Y-82352429D01*
X127944030Y-82329329D01*
X127954520Y-82307151D01*
X127967133Y-82286107D01*
X127981747Y-82266402D01*
X127998223Y-82248223D01*
X128016402Y-82231747D01*
X128036107Y-82217133D01*
X128057151Y-82204520D01*
X128079329Y-82194030D01*
X128102429Y-82185765D01*
X128126227Y-82179804D01*
X128150496Y-82176204D01*
X128175000Y-82175000D01*
X129425000Y-82175000D01*
X129449504Y-82176204D01*
G37*
D11*
X139400000Y-97800000D03*
X143400000Y-97800000D03*
D10*
G36*
X127274504Y-107751204D02*
G01*
X127298773Y-107754804D01*
X127322571Y-107760765D01*
X127345671Y-107769030D01*
X127367849Y-107779520D01*
X127388893Y-107792133D01*
X127408598Y-107806747D01*
X127426777Y-107823223D01*
X127443253Y-107841402D01*
X127457867Y-107861107D01*
X127470480Y-107882151D01*
X127480970Y-107904329D01*
X127489235Y-107927429D01*
X127495196Y-107951227D01*
X127498796Y-107975496D01*
X127500000Y-108000000D01*
X127500000Y-110000000D01*
X127498796Y-110024504D01*
X127495196Y-110048773D01*
X127489235Y-110072571D01*
X127480970Y-110095671D01*
X127470480Y-110117849D01*
X127457867Y-110138893D01*
X127443253Y-110158598D01*
X127426777Y-110176777D01*
X127408598Y-110193253D01*
X127388893Y-110207867D01*
X127367849Y-110220480D01*
X127345671Y-110230970D01*
X127322571Y-110239235D01*
X127298773Y-110245196D01*
X127274504Y-110248796D01*
X127250000Y-110250000D01*
X123350000Y-110250000D01*
X123325496Y-110248796D01*
X123301227Y-110245196D01*
X123277429Y-110239235D01*
X123254329Y-110230970D01*
X123232151Y-110220480D01*
X123211107Y-110207867D01*
X123191402Y-110193253D01*
X123173223Y-110176777D01*
X123156747Y-110158598D01*
X123142133Y-110138893D01*
X123129520Y-110117849D01*
X123119030Y-110095671D01*
X123110765Y-110072571D01*
X123104804Y-110048773D01*
X123101204Y-110024504D01*
X123100000Y-110000000D01*
X123100000Y-108000000D01*
X123101204Y-107975496D01*
X123104804Y-107951227D01*
X123110765Y-107927429D01*
X123119030Y-107904329D01*
X123129520Y-107882151D01*
X123142133Y-107861107D01*
X123156747Y-107841402D01*
X123173223Y-107823223D01*
X123191402Y-107806747D01*
X123211107Y-107792133D01*
X123232151Y-107779520D01*
X123254329Y-107769030D01*
X123277429Y-107760765D01*
X123301227Y-107754804D01*
X123325496Y-107751204D01*
X123350000Y-107750000D01*
X127250000Y-107750000D01*
X127274504Y-107751204D01*
G37*
G36*
X134674504Y-107751204D02*
G01*
X134698773Y-107754804D01*
X134722571Y-107760765D01*
X134745671Y-107769030D01*
X134767849Y-107779520D01*
X134788893Y-107792133D01*
X134808598Y-107806747D01*
X134826777Y-107823223D01*
X134843253Y-107841402D01*
X134857867Y-107861107D01*
X134870480Y-107882151D01*
X134880970Y-107904329D01*
X134889235Y-107927429D01*
X134895196Y-107951227D01*
X134898796Y-107975496D01*
X134900000Y-108000000D01*
X134900000Y-110000000D01*
X134898796Y-110024504D01*
X134895196Y-110048773D01*
X134889235Y-110072571D01*
X134880970Y-110095671D01*
X134870480Y-110117849D01*
X134857867Y-110138893D01*
X134843253Y-110158598D01*
X134826777Y-110176777D01*
X134808598Y-110193253D01*
X134788893Y-110207867D01*
X134767849Y-110220480D01*
X134745671Y-110230970D01*
X134722571Y-110239235D01*
X134698773Y-110245196D01*
X134674504Y-110248796D01*
X134650000Y-110250000D01*
X130750000Y-110250000D01*
X130725496Y-110248796D01*
X130701227Y-110245196D01*
X130677429Y-110239235D01*
X130654329Y-110230970D01*
X130632151Y-110220480D01*
X130611107Y-110207867D01*
X130591402Y-110193253D01*
X130573223Y-110176777D01*
X130556747Y-110158598D01*
X130542133Y-110138893D01*
X130529520Y-110117849D01*
X130519030Y-110095671D01*
X130510765Y-110072571D01*
X130504804Y-110048773D01*
X130501204Y-110024504D01*
X130500000Y-110000000D01*
X130500000Y-108000000D01*
X130501204Y-107975496D01*
X130504804Y-107951227D01*
X130510765Y-107927429D01*
X130519030Y-107904329D01*
X130529520Y-107882151D01*
X130542133Y-107861107D01*
X130556747Y-107841402D01*
X130573223Y-107823223D01*
X130591402Y-107806747D01*
X130611107Y-107792133D01*
X130632151Y-107779520D01*
X130654329Y-107769030D01*
X130677429Y-107760765D01*
X130701227Y-107754804D01*
X130725496Y-107751204D01*
X130750000Y-107750000D01*
X134650000Y-107750000D01*
X134674504Y-107751204D01*
G37*
G36*
X143764703Y-103195722D02*
G01*
X143779264Y-103197882D01*
X143793543Y-103201459D01*
X143807403Y-103206418D01*
X143820710Y-103212712D01*
X143833336Y-103220280D01*
X143845159Y-103229048D01*
X143856066Y-103238934D01*
X143865952Y-103249841D01*
X143874720Y-103261664D01*
X143882288Y-103274290D01*
X143888582Y-103287597D01*
X143893541Y-103301457D01*
X143897118Y-103315736D01*
X143899278Y-103330297D01*
X143900000Y-103345000D01*
X143900000Y-103645000D01*
X143899278Y-103659703D01*
X143897118Y-103674264D01*
X143893541Y-103688543D01*
X143888582Y-103702403D01*
X143882288Y-103715710D01*
X143874720Y-103728336D01*
X143865952Y-103740159D01*
X143856066Y-103751066D01*
X143845159Y-103760952D01*
X143833336Y-103769720D01*
X143820710Y-103777288D01*
X143807403Y-103783582D01*
X143793543Y-103788541D01*
X143779264Y-103792118D01*
X143764703Y-103794278D01*
X143750000Y-103795000D01*
X142100000Y-103795000D01*
X142085297Y-103794278D01*
X142070736Y-103792118D01*
X142056457Y-103788541D01*
X142042597Y-103783582D01*
X142029290Y-103777288D01*
X142016664Y-103769720D01*
X142004841Y-103760952D01*
X141993934Y-103751066D01*
X141984048Y-103740159D01*
X141975280Y-103728336D01*
X141967712Y-103715710D01*
X141961418Y-103702403D01*
X141956459Y-103688543D01*
X141952882Y-103674264D01*
X141950722Y-103659703D01*
X141950000Y-103645000D01*
X141950000Y-103345000D01*
X141950722Y-103330297D01*
X141952882Y-103315736D01*
X141956459Y-103301457D01*
X141961418Y-103287597D01*
X141967712Y-103274290D01*
X141975280Y-103261664D01*
X141984048Y-103249841D01*
X141993934Y-103238934D01*
X142004841Y-103229048D01*
X142016664Y-103220280D01*
X142029290Y-103212712D01*
X142042597Y-103206418D01*
X142056457Y-103201459D01*
X142070736Y-103197882D01*
X142085297Y-103195722D01*
X142100000Y-103195000D01*
X143750000Y-103195000D01*
X143764703Y-103195722D01*
G37*
G36*
X143764703Y-104465722D02*
G01*
X143779264Y-104467882D01*
X143793543Y-104471459D01*
X143807403Y-104476418D01*
X143820710Y-104482712D01*
X143833336Y-104490280D01*
X143845159Y-104499048D01*
X143856066Y-104508934D01*
X143865952Y-104519841D01*
X143874720Y-104531664D01*
X143882288Y-104544290D01*
X143888582Y-104557597D01*
X143893541Y-104571457D01*
X143897118Y-104585736D01*
X143899278Y-104600297D01*
X143900000Y-104615000D01*
X143900000Y-104915000D01*
X143899278Y-104929703D01*
X143897118Y-104944264D01*
X143893541Y-104958543D01*
X143888582Y-104972403D01*
X143882288Y-104985710D01*
X143874720Y-104998336D01*
X143865952Y-105010159D01*
X143856066Y-105021066D01*
X143845159Y-105030952D01*
X143833336Y-105039720D01*
X143820710Y-105047288D01*
X143807403Y-105053582D01*
X143793543Y-105058541D01*
X143779264Y-105062118D01*
X143764703Y-105064278D01*
X143750000Y-105065000D01*
X142100000Y-105065000D01*
X142085297Y-105064278D01*
X142070736Y-105062118D01*
X142056457Y-105058541D01*
X142042597Y-105053582D01*
X142029290Y-105047288D01*
X142016664Y-105039720D01*
X142004841Y-105030952D01*
X141993934Y-105021066D01*
X141984048Y-105010159D01*
X141975280Y-104998336D01*
X141967712Y-104985710D01*
X141961418Y-104972403D01*
X141956459Y-104958543D01*
X141952882Y-104944264D01*
X141950722Y-104929703D01*
X141950000Y-104915000D01*
X141950000Y-104615000D01*
X141950722Y-104600297D01*
X141952882Y-104585736D01*
X141956459Y-104571457D01*
X141961418Y-104557597D01*
X141967712Y-104544290D01*
X141975280Y-104531664D01*
X141984048Y-104519841D01*
X141993934Y-104508934D01*
X142004841Y-104499048D01*
X142016664Y-104490280D01*
X142029290Y-104482712D01*
X142042597Y-104476418D01*
X142056457Y-104471459D01*
X142070736Y-104467882D01*
X142085297Y-104465722D01*
X142100000Y-104465000D01*
X143750000Y-104465000D01*
X143764703Y-104465722D01*
G37*
G36*
X143764703Y-105735722D02*
G01*
X143779264Y-105737882D01*
X143793543Y-105741459D01*
X143807403Y-105746418D01*
X143820710Y-105752712D01*
X143833336Y-105760280D01*
X143845159Y-105769048D01*
X143856066Y-105778934D01*
X143865952Y-105789841D01*
X143874720Y-105801664D01*
X143882288Y-105814290D01*
X143888582Y-105827597D01*
X143893541Y-105841457D01*
X143897118Y-105855736D01*
X143899278Y-105870297D01*
X143900000Y-105885000D01*
X143900000Y-106185000D01*
X143899278Y-106199703D01*
X143897118Y-106214264D01*
X143893541Y-106228543D01*
X143888582Y-106242403D01*
X143882288Y-106255710D01*
X143874720Y-106268336D01*
X143865952Y-106280159D01*
X143856066Y-106291066D01*
X143845159Y-106300952D01*
X143833336Y-106309720D01*
X143820710Y-106317288D01*
X143807403Y-106323582D01*
X143793543Y-106328541D01*
X143779264Y-106332118D01*
X143764703Y-106334278D01*
X143750000Y-106335000D01*
X142100000Y-106335000D01*
X142085297Y-106334278D01*
X142070736Y-106332118D01*
X142056457Y-106328541D01*
X142042597Y-106323582D01*
X142029290Y-106317288D01*
X142016664Y-106309720D01*
X142004841Y-106300952D01*
X141993934Y-106291066D01*
X141984048Y-106280159D01*
X141975280Y-106268336D01*
X141967712Y-106255710D01*
X141961418Y-106242403D01*
X141956459Y-106228543D01*
X141952882Y-106214264D01*
X141950722Y-106199703D01*
X141950000Y-106185000D01*
X141950000Y-105885000D01*
X141950722Y-105870297D01*
X141952882Y-105855736D01*
X141956459Y-105841457D01*
X141961418Y-105827597D01*
X141967712Y-105814290D01*
X141975280Y-105801664D01*
X141984048Y-105789841D01*
X141993934Y-105778934D01*
X142004841Y-105769048D01*
X142016664Y-105760280D01*
X142029290Y-105752712D01*
X142042597Y-105746418D01*
X142056457Y-105741459D01*
X142070736Y-105737882D01*
X142085297Y-105735722D01*
X142100000Y-105735000D01*
X143750000Y-105735000D01*
X143764703Y-105735722D01*
G37*
G36*
X143764703Y-107005722D02*
G01*
X143779264Y-107007882D01*
X143793543Y-107011459D01*
X143807403Y-107016418D01*
X143820710Y-107022712D01*
X143833336Y-107030280D01*
X143845159Y-107039048D01*
X143856066Y-107048934D01*
X143865952Y-107059841D01*
X143874720Y-107071664D01*
X143882288Y-107084290D01*
X143888582Y-107097597D01*
X143893541Y-107111457D01*
X143897118Y-107125736D01*
X143899278Y-107140297D01*
X143900000Y-107155000D01*
X143900000Y-107455000D01*
X143899278Y-107469703D01*
X143897118Y-107484264D01*
X143893541Y-107498543D01*
X143888582Y-107512403D01*
X143882288Y-107525710D01*
X143874720Y-107538336D01*
X143865952Y-107550159D01*
X143856066Y-107561066D01*
X143845159Y-107570952D01*
X143833336Y-107579720D01*
X143820710Y-107587288D01*
X143807403Y-107593582D01*
X143793543Y-107598541D01*
X143779264Y-107602118D01*
X143764703Y-107604278D01*
X143750000Y-107605000D01*
X142100000Y-107605000D01*
X142085297Y-107604278D01*
X142070736Y-107602118D01*
X142056457Y-107598541D01*
X142042597Y-107593582D01*
X142029290Y-107587288D01*
X142016664Y-107579720D01*
X142004841Y-107570952D01*
X141993934Y-107561066D01*
X141984048Y-107550159D01*
X141975280Y-107538336D01*
X141967712Y-107525710D01*
X141961418Y-107512403D01*
X141956459Y-107498543D01*
X141952882Y-107484264D01*
X141950722Y-107469703D01*
X141950000Y-107455000D01*
X141950000Y-107155000D01*
X141950722Y-107140297D01*
X141952882Y-107125736D01*
X141956459Y-107111457D01*
X141961418Y-107097597D01*
X141967712Y-107084290D01*
X141975280Y-107071664D01*
X141984048Y-107059841D01*
X141993934Y-107048934D01*
X142004841Y-107039048D01*
X142016664Y-107030280D01*
X142029290Y-107022712D01*
X142042597Y-107016418D01*
X142056457Y-107011459D01*
X142070736Y-107007882D01*
X142085297Y-107005722D01*
X142100000Y-107005000D01*
X143750000Y-107005000D01*
X143764703Y-107005722D01*
G37*
G36*
X148714703Y-107005722D02*
G01*
X148729264Y-107007882D01*
X148743543Y-107011459D01*
X148757403Y-107016418D01*
X148770710Y-107022712D01*
X148783336Y-107030280D01*
X148795159Y-107039048D01*
X148806066Y-107048934D01*
X148815952Y-107059841D01*
X148824720Y-107071664D01*
X148832288Y-107084290D01*
X148838582Y-107097597D01*
X148843541Y-107111457D01*
X148847118Y-107125736D01*
X148849278Y-107140297D01*
X148850000Y-107155000D01*
X148850000Y-107455000D01*
X148849278Y-107469703D01*
X148847118Y-107484264D01*
X148843541Y-107498543D01*
X148838582Y-107512403D01*
X148832288Y-107525710D01*
X148824720Y-107538336D01*
X148815952Y-107550159D01*
X148806066Y-107561066D01*
X148795159Y-107570952D01*
X148783336Y-107579720D01*
X148770710Y-107587288D01*
X148757403Y-107593582D01*
X148743543Y-107598541D01*
X148729264Y-107602118D01*
X148714703Y-107604278D01*
X148700000Y-107605000D01*
X147050000Y-107605000D01*
X147035297Y-107604278D01*
X147020736Y-107602118D01*
X147006457Y-107598541D01*
X146992597Y-107593582D01*
X146979290Y-107587288D01*
X146966664Y-107579720D01*
X146954841Y-107570952D01*
X146943934Y-107561066D01*
X146934048Y-107550159D01*
X146925280Y-107538336D01*
X146917712Y-107525710D01*
X146911418Y-107512403D01*
X146906459Y-107498543D01*
X146902882Y-107484264D01*
X146900722Y-107469703D01*
X146900000Y-107455000D01*
X146900000Y-107155000D01*
X146900722Y-107140297D01*
X146902882Y-107125736D01*
X146906459Y-107111457D01*
X146911418Y-107097597D01*
X146917712Y-107084290D01*
X146925280Y-107071664D01*
X146934048Y-107059841D01*
X146943934Y-107048934D01*
X146954841Y-107039048D01*
X146966664Y-107030280D01*
X146979290Y-107022712D01*
X146992597Y-107016418D01*
X147006457Y-107011459D01*
X147020736Y-107007882D01*
X147035297Y-107005722D01*
X147050000Y-107005000D01*
X148700000Y-107005000D01*
X148714703Y-107005722D01*
G37*
G36*
X148714703Y-105735722D02*
G01*
X148729264Y-105737882D01*
X148743543Y-105741459D01*
X148757403Y-105746418D01*
X148770710Y-105752712D01*
X148783336Y-105760280D01*
X148795159Y-105769048D01*
X148806066Y-105778934D01*
X148815952Y-105789841D01*
X148824720Y-105801664D01*
X148832288Y-105814290D01*
X148838582Y-105827597D01*
X148843541Y-105841457D01*
X148847118Y-105855736D01*
X148849278Y-105870297D01*
X148850000Y-105885000D01*
X148850000Y-106185000D01*
X148849278Y-106199703D01*
X148847118Y-106214264D01*
X148843541Y-106228543D01*
X148838582Y-106242403D01*
X148832288Y-106255710D01*
X148824720Y-106268336D01*
X148815952Y-106280159D01*
X148806066Y-106291066D01*
X148795159Y-106300952D01*
X148783336Y-106309720D01*
X148770710Y-106317288D01*
X148757403Y-106323582D01*
X148743543Y-106328541D01*
X148729264Y-106332118D01*
X148714703Y-106334278D01*
X148700000Y-106335000D01*
X147050000Y-106335000D01*
X147035297Y-106334278D01*
X147020736Y-106332118D01*
X147006457Y-106328541D01*
X146992597Y-106323582D01*
X146979290Y-106317288D01*
X146966664Y-106309720D01*
X146954841Y-106300952D01*
X146943934Y-106291066D01*
X146934048Y-106280159D01*
X146925280Y-106268336D01*
X146917712Y-106255710D01*
X146911418Y-106242403D01*
X146906459Y-106228543D01*
X146902882Y-106214264D01*
X146900722Y-106199703D01*
X146900000Y-106185000D01*
X146900000Y-105885000D01*
X146900722Y-105870297D01*
X146902882Y-105855736D01*
X146906459Y-105841457D01*
X146911418Y-105827597D01*
X146917712Y-105814290D01*
X146925280Y-105801664D01*
X146934048Y-105789841D01*
X146943934Y-105778934D01*
X146954841Y-105769048D01*
X146966664Y-105760280D01*
X146979290Y-105752712D01*
X146992597Y-105746418D01*
X147006457Y-105741459D01*
X147020736Y-105737882D01*
X147035297Y-105735722D01*
X147050000Y-105735000D01*
X148700000Y-105735000D01*
X148714703Y-105735722D01*
G37*
G36*
X148714703Y-104465722D02*
G01*
X148729264Y-104467882D01*
X148743543Y-104471459D01*
X148757403Y-104476418D01*
X148770710Y-104482712D01*
X148783336Y-104490280D01*
X148795159Y-104499048D01*
X148806066Y-104508934D01*
X148815952Y-104519841D01*
X148824720Y-104531664D01*
X148832288Y-104544290D01*
X148838582Y-104557597D01*
X148843541Y-104571457D01*
X148847118Y-104585736D01*
X148849278Y-104600297D01*
X148850000Y-104615000D01*
X148850000Y-104915000D01*
X148849278Y-104929703D01*
X148847118Y-104944264D01*
X148843541Y-104958543D01*
X148838582Y-104972403D01*
X148832288Y-104985710D01*
X148824720Y-104998336D01*
X148815952Y-105010159D01*
X148806066Y-105021066D01*
X148795159Y-105030952D01*
X148783336Y-105039720D01*
X148770710Y-105047288D01*
X148757403Y-105053582D01*
X148743543Y-105058541D01*
X148729264Y-105062118D01*
X148714703Y-105064278D01*
X148700000Y-105065000D01*
X147050000Y-105065000D01*
X147035297Y-105064278D01*
X147020736Y-105062118D01*
X147006457Y-105058541D01*
X146992597Y-105053582D01*
X146979290Y-105047288D01*
X146966664Y-105039720D01*
X146954841Y-105030952D01*
X146943934Y-105021066D01*
X146934048Y-105010159D01*
X146925280Y-104998336D01*
X146917712Y-104985710D01*
X146911418Y-104972403D01*
X146906459Y-104958543D01*
X146902882Y-104944264D01*
X146900722Y-104929703D01*
X146900000Y-104915000D01*
X146900000Y-104615000D01*
X146900722Y-104600297D01*
X146902882Y-104585736D01*
X146906459Y-104571457D01*
X146911418Y-104557597D01*
X146917712Y-104544290D01*
X146925280Y-104531664D01*
X146934048Y-104519841D01*
X146943934Y-104508934D01*
X146954841Y-104499048D01*
X146966664Y-104490280D01*
X146979290Y-104482712D01*
X146992597Y-104476418D01*
X147006457Y-104471459D01*
X147020736Y-104467882D01*
X147035297Y-104465722D01*
X147050000Y-104465000D01*
X148700000Y-104465000D01*
X148714703Y-104465722D01*
G37*
G36*
X148714703Y-103195722D02*
G01*
X148729264Y-103197882D01*
X148743543Y-103201459D01*
X148757403Y-103206418D01*
X148770710Y-103212712D01*
X148783336Y-103220280D01*
X148795159Y-103229048D01*
X148806066Y-103238934D01*
X148815952Y-103249841D01*
X148824720Y-103261664D01*
X148832288Y-103274290D01*
X148838582Y-103287597D01*
X148843541Y-103301457D01*
X148847118Y-103315736D01*
X148849278Y-103330297D01*
X148850000Y-103345000D01*
X148850000Y-103645000D01*
X148849278Y-103659703D01*
X148847118Y-103674264D01*
X148843541Y-103688543D01*
X148838582Y-103702403D01*
X148832288Y-103715710D01*
X148824720Y-103728336D01*
X148815952Y-103740159D01*
X148806066Y-103751066D01*
X148795159Y-103760952D01*
X148783336Y-103769720D01*
X148770710Y-103777288D01*
X148757403Y-103783582D01*
X148743543Y-103788541D01*
X148729264Y-103792118D01*
X148714703Y-103794278D01*
X148700000Y-103795000D01*
X147050000Y-103795000D01*
X147035297Y-103794278D01*
X147020736Y-103792118D01*
X147006457Y-103788541D01*
X146992597Y-103783582D01*
X146979290Y-103777288D01*
X146966664Y-103769720D01*
X146954841Y-103760952D01*
X146943934Y-103751066D01*
X146934048Y-103740159D01*
X146925280Y-103728336D01*
X146917712Y-103715710D01*
X146911418Y-103702403D01*
X146906459Y-103688543D01*
X146902882Y-103674264D01*
X146900722Y-103659703D01*
X146900000Y-103645000D01*
X146900000Y-103345000D01*
X146900722Y-103330297D01*
X146902882Y-103315736D01*
X146906459Y-103301457D01*
X146911418Y-103287597D01*
X146917712Y-103274290D01*
X146925280Y-103261664D01*
X146934048Y-103249841D01*
X146943934Y-103238934D01*
X146954841Y-103229048D01*
X146966664Y-103220280D01*
X146979290Y-103212712D01*
X146992597Y-103206418D01*
X147006457Y-103201459D01*
X147020736Y-103197882D01*
X147035297Y-103195722D01*
X147050000Y-103195000D01*
X148700000Y-103195000D01*
X148714703Y-103195722D01*
G37*
G36*
X139154703Y-82255722D02*
G01*
X139169264Y-82257882D01*
X139183543Y-82261459D01*
X139197403Y-82266418D01*
X139210710Y-82272712D01*
X139223336Y-82280280D01*
X139235159Y-82289048D01*
X139246066Y-82298934D01*
X139255952Y-82309841D01*
X139264720Y-82321664D01*
X139272288Y-82334290D01*
X139278582Y-82347597D01*
X139283541Y-82361457D01*
X139287118Y-82375736D01*
X139289278Y-82390297D01*
X139290000Y-82405000D01*
X139290000Y-82705000D01*
X139289278Y-82719703D01*
X139287118Y-82734264D01*
X139283541Y-82748543D01*
X139278582Y-82762403D01*
X139272288Y-82775710D01*
X139264720Y-82788336D01*
X139255952Y-82800159D01*
X139246066Y-82811066D01*
X139235159Y-82820952D01*
X139223336Y-82829720D01*
X139210710Y-82837288D01*
X139197403Y-82843582D01*
X139183543Y-82848541D01*
X139169264Y-82852118D01*
X139154703Y-82854278D01*
X139140000Y-82855000D01*
X137490000Y-82855000D01*
X137475297Y-82854278D01*
X137460736Y-82852118D01*
X137446457Y-82848541D01*
X137432597Y-82843582D01*
X137419290Y-82837288D01*
X137406664Y-82829720D01*
X137394841Y-82820952D01*
X137383934Y-82811066D01*
X137374048Y-82800159D01*
X137365280Y-82788336D01*
X137357712Y-82775710D01*
X137351418Y-82762403D01*
X137346459Y-82748543D01*
X137342882Y-82734264D01*
X137340722Y-82719703D01*
X137340000Y-82705000D01*
X137340000Y-82405000D01*
X137340722Y-82390297D01*
X137342882Y-82375736D01*
X137346459Y-82361457D01*
X137351418Y-82347597D01*
X137357712Y-82334290D01*
X137365280Y-82321664D01*
X137374048Y-82309841D01*
X137383934Y-82298934D01*
X137394841Y-82289048D01*
X137406664Y-82280280D01*
X137419290Y-82272712D01*
X137432597Y-82266418D01*
X137446457Y-82261459D01*
X137460736Y-82257882D01*
X137475297Y-82255722D01*
X137490000Y-82255000D01*
X139140000Y-82255000D01*
X139154703Y-82255722D01*
G37*
G36*
X139154703Y-83525722D02*
G01*
X139169264Y-83527882D01*
X139183543Y-83531459D01*
X139197403Y-83536418D01*
X139210710Y-83542712D01*
X139223336Y-83550280D01*
X139235159Y-83559048D01*
X139246066Y-83568934D01*
X139255952Y-83579841D01*
X139264720Y-83591664D01*
X139272288Y-83604290D01*
X139278582Y-83617597D01*
X139283541Y-83631457D01*
X139287118Y-83645736D01*
X139289278Y-83660297D01*
X139290000Y-83675000D01*
X139290000Y-83975000D01*
X139289278Y-83989703D01*
X139287118Y-84004264D01*
X139283541Y-84018543D01*
X139278582Y-84032403D01*
X139272288Y-84045710D01*
X139264720Y-84058336D01*
X139255952Y-84070159D01*
X139246066Y-84081066D01*
X139235159Y-84090952D01*
X139223336Y-84099720D01*
X139210710Y-84107288D01*
X139197403Y-84113582D01*
X139183543Y-84118541D01*
X139169264Y-84122118D01*
X139154703Y-84124278D01*
X139140000Y-84125000D01*
X137490000Y-84125000D01*
X137475297Y-84124278D01*
X137460736Y-84122118D01*
X137446457Y-84118541D01*
X137432597Y-84113582D01*
X137419290Y-84107288D01*
X137406664Y-84099720D01*
X137394841Y-84090952D01*
X137383934Y-84081066D01*
X137374048Y-84070159D01*
X137365280Y-84058336D01*
X137357712Y-84045710D01*
X137351418Y-84032403D01*
X137346459Y-84018543D01*
X137342882Y-84004264D01*
X137340722Y-83989703D01*
X137340000Y-83975000D01*
X137340000Y-83675000D01*
X137340722Y-83660297D01*
X137342882Y-83645736D01*
X137346459Y-83631457D01*
X137351418Y-83617597D01*
X137357712Y-83604290D01*
X137365280Y-83591664D01*
X137374048Y-83579841D01*
X137383934Y-83568934D01*
X137394841Y-83559048D01*
X137406664Y-83550280D01*
X137419290Y-83542712D01*
X137432597Y-83536418D01*
X137446457Y-83531459D01*
X137460736Y-83527882D01*
X137475297Y-83525722D01*
X137490000Y-83525000D01*
X139140000Y-83525000D01*
X139154703Y-83525722D01*
G37*
G36*
X139154703Y-84795722D02*
G01*
X139169264Y-84797882D01*
X139183543Y-84801459D01*
X139197403Y-84806418D01*
X139210710Y-84812712D01*
X139223336Y-84820280D01*
X139235159Y-84829048D01*
X139246066Y-84838934D01*
X139255952Y-84849841D01*
X139264720Y-84861664D01*
X139272288Y-84874290D01*
X139278582Y-84887597D01*
X139283541Y-84901457D01*
X139287118Y-84915736D01*
X139289278Y-84930297D01*
X139290000Y-84945000D01*
X139290000Y-85245000D01*
X139289278Y-85259703D01*
X139287118Y-85274264D01*
X139283541Y-85288543D01*
X139278582Y-85302403D01*
X139272288Y-85315710D01*
X139264720Y-85328336D01*
X139255952Y-85340159D01*
X139246066Y-85351066D01*
X139235159Y-85360952D01*
X139223336Y-85369720D01*
X139210710Y-85377288D01*
X139197403Y-85383582D01*
X139183543Y-85388541D01*
X139169264Y-85392118D01*
X139154703Y-85394278D01*
X139140000Y-85395000D01*
X137490000Y-85395000D01*
X137475297Y-85394278D01*
X137460736Y-85392118D01*
X137446457Y-85388541D01*
X137432597Y-85383582D01*
X137419290Y-85377288D01*
X137406664Y-85369720D01*
X137394841Y-85360952D01*
X137383934Y-85351066D01*
X137374048Y-85340159D01*
X137365280Y-85328336D01*
X137357712Y-85315710D01*
X137351418Y-85302403D01*
X137346459Y-85288543D01*
X137342882Y-85274264D01*
X137340722Y-85259703D01*
X137340000Y-85245000D01*
X137340000Y-84945000D01*
X137340722Y-84930297D01*
X137342882Y-84915736D01*
X137346459Y-84901457D01*
X137351418Y-84887597D01*
X137357712Y-84874290D01*
X137365280Y-84861664D01*
X137374048Y-84849841D01*
X137383934Y-84838934D01*
X137394841Y-84829048D01*
X137406664Y-84820280D01*
X137419290Y-84812712D01*
X137432597Y-84806418D01*
X137446457Y-84801459D01*
X137460736Y-84797882D01*
X137475297Y-84795722D01*
X137490000Y-84795000D01*
X139140000Y-84795000D01*
X139154703Y-84795722D01*
G37*
G36*
X139154703Y-86065722D02*
G01*
X139169264Y-86067882D01*
X139183543Y-86071459D01*
X139197403Y-86076418D01*
X139210710Y-86082712D01*
X139223336Y-86090280D01*
X139235159Y-86099048D01*
X139246066Y-86108934D01*
X139255952Y-86119841D01*
X139264720Y-86131664D01*
X139272288Y-86144290D01*
X139278582Y-86157597D01*
X139283541Y-86171457D01*
X139287118Y-86185736D01*
X139289278Y-86200297D01*
X139290000Y-86215000D01*
X139290000Y-86515000D01*
X139289278Y-86529703D01*
X139287118Y-86544264D01*
X139283541Y-86558543D01*
X139278582Y-86572403D01*
X139272288Y-86585710D01*
X139264720Y-86598336D01*
X139255952Y-86610159D01*
X139246066Y-86621066D01*
X139235159Y-86630952D01*
X139223336Y-86639720D01*
X139210710Y-86647288D01*
X139197403Y-86653582D01*
X139183543Y-86658541D01*
X139169264Y-86662118D01*
X139154703Y-86664278D01*
X139140000Y-86665000D01*
X137490000Y-86665000D01*
X137475297Y-86664278D01*
X137460736Y-86662118D01*
X137446457Y-86658541D01*
X137432597Y-86653582D01*
X137419290Y-86647288D01*
X137406664Y-86639720D01*
X137394841Y-86630952D01*
X137383934Y-86621066D01*
X137374048Y-86610159D01*
X137365280Y-86598336D01*
X137357712Y-86585710D01*
X137351418Y-86572403D01*
X137346459Y-86558543D01*
X137342882Y-86544264D01*
X137340722Y-86529703D01*
X137340000Y-86515000D01*
X137340000Y-86215000D01*
X137340722Y-86200297D01*
X137342882Y-86185736D01*
X137346459Y-86171457D01*
X137351418Y-86157597D01*
X137357712Y-86144290D01*
X137365280Y-86131664D01*
X137374048Y-86119841D01*
X137383934Y-86108934D01*
X137394841Y-86099048D01*
X137406664Y-86090280D01*
X137419290Y-86082712D01*
X137432597Y-86076418D01*
X137446457Y-86071459D01*
X137460736Y-86067882D01*
X137475297Y-86065722D01*
X137490000Y-86065000D01*
X139140000Y-86065000D01*
X139154703Y-86065722D01*
G37*
G36*
X134204703Y-86065722D02*
G01*
X134219264Y-86067882D01*
X134233543Y-86071459D01*
X134247403Y-86076418D01*
X134260710Y-86082712D01*
X134273336Y-86090280D01*
X134285159Y-86099048D01*
X134296066Y-86108934D01*
X134305952Y-86119841D01*
X134314720Y-86131664D01*
X134322288Y-86144290D01*
X134328582Y-86157597D01*
X134333541Y-86171457D01*
X134337118Y-86185736D01*
X134339278Y-86200297D01*
X134340000Y-86215000D01*
X134340000Y-86515000D01*
X134339278Y-86529703D01*
X134337118Y-86544264D01*
X134333541Y-86558543D01*
X134328582Y-86572403D01*
X134322288Y-86585710D01*
X134314720Y-86598336D01*
X134305952Y-86610159D01*
X134296066Y-86621066D01*
X134285159Y-86630952D01*
X134273336Y-86639720D01*
X134260710Y-86647288D01*
X134247403Y-86653582D01*
X134233543Y-86658541D01*
X134219264Y-86662118D01*
X134204703Y-86664278D01*
X134190000Y-86665000D01*
X132540000Y-86665000D01*
X132525297Y-86664278D01*
X132510736Y-86662118D01*
X132496457Y-86658541D01*
X132482597Y-86653582D01*
X132469290Y-86647288D01*
X132456664Y-86639720D01*
X132444841Y-86630952D01*
X132433934Y-86621066D01*
X132424048Y-86610159D01*
X132415280Y-86598336D01*
X132407712Y-86585710D01*
X132401418Y-86572403D01*
X132396459Y-86558543D01*
X132392882Y-86544264D01*
X132390722Y-86529703D01*
X132390000Y-86515000D01*
X132390000Y-86215000D01*
X132390722Y-86200297D01*
X132392882Y-86185736D01*
X132396459Y-86171457D01*
X132401418Y-86157597D01*
X132407712Y-86144290D01*
X132415280Y-86131664D01*
X132424048Y-86119841D01*
X132433934Y-86108934D01*
X132444841Y-86099048D01*
X132456664Y-86090280D01*
X132469290Y-86082712D01*
X132482597Y-86076418D01*
X132496457Y-86071459D01*
X132510736Y-86067882D01*
X132525297Y-86065722D01*
X132540000Y-86065000D01*
X134190000Y-86065000D01*
X134204703Y-86065722D01*
G37*
G36*
X134204703Y-84795722D02*
G01*
X134219264Y-84797882D01*
X134233543Y-84801459D01*
X134247403Y-84806418D01*
X134260710Y-84812712D01*
X134273336Y-84820280D01*
X134285159Y-84829048D01*
X134296066Y-84838934D01*
X134305952Y-84849841D01*
X134314720Y-84861664D01*
X134322288Y-84874290D01*
X134328582Y-84887597D01*
X134333541Y-84901457D01*
X134337118Y-84915736D01*
X134339278Y-84930297D01*
X134340000Y-84945000D01*
X134340000Y-85245000D01*
X134339278Y-85259703D01*
X134337118Y-85274264D01*
X134333541Y-85288543D01*
X134328582Y-85302403D01*
X134322288Y-85315710D01*
X134314720Y-85328336D01*
X134305952Y-85340159D01*
X134296066Y-85351066D01*
X134285159Y-85360952D01*
X134273336Y-85369720D01*
X134260710Y-85377288D01*
X134247403Y-85383582D01*
X134233543Y-85388541D01*
X134219264Y-85392118D01*
X134204703Y-85394278D01*
X134190000Y-85395000D01*
X132540000Y-85395000D01*
X132525297Y-85394278D01*
X132510736Y-85392118D01*
X132496457Y-85388541D01*
X132482597Y-85383582D01*
X132469290Y-85377288D01*
X132456664Y-85369720D01*
X132444841Y-85360952D01*
X132433934Y-85351066D01*
X132424048Y-85340159D01*
X132415280Y-85328336D01*
X132407712Y-85315710D01*
X132401418Y-85302403D01*
X132396459Y-85288543D01*
X132392882Y-85274264D01*
X132390722Y-85259703D01*
X132390000Y-85245000D01*
X132390000Y-84945000D01*
X132390722Y-84930297D01*
X132392882Y-84915736D01*
X132396459Y-84901457D01*
X132401418Y-84887597D01*
X132407712Y-84874290D01*
X132415280Y-84861664D01*
X132424048Y-84849841D01*
X132433934Y-84838934D01*
X132444841Y-84829048D01*
X132456664Y-84820280D01*
X132469290Y-84812712D01*
X132482597Y-84806418D01*
X132496457Y-84801459D01*
X132510736Y-84797882D01*
X132525297Y-84795722D01*
X132540000Y-84795000D01*
X134190000Y-84795000D01*
X134204703Y-84795722D01*
G37*
G36*
X134204703Y-83525722D02*
G01*
X134219264Y-83527882D01*
X134233543Y-83531459D01*
X134247403Y-83536418D01*
X134260710Y-83542712D01*
X134273336Y-83550280D01*
X134285159Y-83559048D01*
X134296066Y-83568934D01*
X134305952Y-83579841D01*
X134314720Y-83591664D01*
X134322288Y-83604290D01*
X134328582Y-83617597D01*
X134333541Y-83631457D01*
X134337118Y-83645736D01*
X134339278Y-83660297D01*
X134340000Y-83675000D01*
X134340000Y-83975000D01*
X134339278Y-83989703D01*
X134337118Y-84004264D01*
X134333541Y-84018543D01*
X134328582Y-84032403D01*
X134322288Y-84045710D01*
X134314720Y-84058336D01*
X134305952Y-84070159D01*
X134296066Y-84081066D01*
X134285159Y-84090952D01*
X134273336Y-84099720D01*
X134260710Y-84107288D01*
X134247403Y-84113582D01*
X134233543Y-84118541D01*
X134219264Y-84122118D01*
X134204703Y-84124278D01*
X134190000Y-84125000D01*
X132540000Y-84125000D01*
X132525297Y-84124278D01*
X132510736Y-84122118D01*
X132496457Y-84118541D01*
X132482597Y-84113582D01*
X132469290Y-84107288D01*
X132456664Y-84099720D01*
X132444841Y-84090952D01*
X132433934Y-84081066D01*
X132424048Y-84070159D01*
X132415280Y-84058336D01*
X132407712Y-84045710D01*
X132401418Y-84032403D01*
X132396459Y-84018543D01*
X132392882Y-84004264D01*
X132390722Y-83989703D01*
X132390000Y-83975000D01*
X132390000Y-83675000D01*
X132390722Y-83660297D01*
X132392882Y-83645736D01*
X132396459Y-83631457D01*
X132401418Y-83617597D01*
X132407712Y-83604290D01*
X132415280Y-83591664D01*
X132424048Y-83579841D01*
X132433934Y-83568934D01*
X132444841Y-83559048D01*
X132456664Y-83550280D01*
X132469290Y-83542712D01*
X132482597Y-83536418D01*
X132496457Y-83531459D01*
X132510736Y-83527882D01*
X132525297Y-83525722D01*
X132540000Y-83525000D01*
X134190000Y-83525000D01*
X134204703Y-83525722D01*
G37*
G36*
X134204703Y-82255722D02*
G01*
X134219264Y-82257882D01*
X134233543Y-82261459D01*
X134247403Y-82266418D01*
X134260710Y-82272712D01*
X134273336Y-82280280D01*
X134285159Y-82289048D01*
X134296066Y-82298934D01*
X134305952Y-82309841D01*
X134314720Y-82321664D01*
X134322288Y-82334290D01*
X134328582Y-82347597D01*
X134333541Y-82361457D01*
X134337118Y-82375736D01*
X134339278Y-82390297D01*
X134340000Y-82405000D01*
X134340000Y-82705000D01*
X134339278Y-82719703D01*
X134337118Y-82734264D01*
X134333541Y-82748543D01*
X134328582Y-82762403D01*
X134322288Y-82775710D01*
X134314720Y-82788336D01*
X134305952Y-82800159D01*
X134296066Y-82811066D01*
X134285159Y-82820952D01*
X134273336Y-82829720D01*
X134260710Y-82837288D01*
X134247403Y-82843582D01*
X134233543Y-82848541D01*
X134219264Y-82852118D01*
X134204703Y-82854278D01*
X134190000Y-82855000D01*
X132540000Y-82855000D01*
X132525297Y-82854278D01*
X132510736Y-82852118D01*
X132496457Y-82848541D01*
X132482597Y-82843582D01*
X132469290Y-82837288D01*
X132456664Y-82829720D01*
X132444841Y-82820952D01*
X132433934Y-82811066D01*
X132424048Y-82800159D01*
X132415280Y-82788336D01*
X132407712Y-82775710D01*
X132401418Y-82762403D01*
X132396459Y-82748543D01*
X132392882Y-82734264D01*
X132390722Y-82719703D01*
X132390000Y-82705000D01*
X132390000Y-82405000D01*
X132390722Y-82390297D01*
X132392882Y-82375736D01*
X132396459Y-82361457D01*
X132401418Y-82347597D01*
X132407712Y-82334290D01*
X132415280Y-82321664D01*
X132424048Y-82309841D01*
X132433934Y-82298934D01*
X132444841Y-82289048D01*
X132456664Y-82280280D01*
X132469290Y-82272712D01*
X132482597Y-82266418D01*
X132496457Y-82261459D01*
X132510736Y-82257882D01*
X132525297Y-82255722D01*
X132540000Y-82255000D01*
X134190000Y-82255000D01*
X134204703Y-82255722D01*
G37*
G36*
X152449504Y-107776204D02*
G01*
X152473773Y-107779804D01*
X152497571Y-107785765D01*
X152520671Y-107794030D01*
X152542849Y-107804520D01*
X152563893Y-107817133D01*
X152583598Y-107831747D01*
X152601777Y-107848223D01*
X152618253Y-107866402D01*
X152632867Y-107886107D01*
X152645480Y-107907151D01*
X152655970Y-107929329D01*
X152664235Y-107952429D01*
X152670196Y-107976227D01*
X152673796Y-108000496D01*
X152675000Y-108025000D01*
X152675000Y-108775000D01*
X152673796Y-108799504D01*
X152670196Y-108823773D01*
X152664235Y-108847571D01*
X152655970Y-108870671D01*
X152645480Y-108892849D01*
X152632867Y-108913893D01*
X152618253Y-108933598D01*
X152601777Y-108951777D01*
X152583598Y-108968253D01*
X152563893Y-108982867D01*
X152542849Y-108995480D01*
X152520671Y-109005970D01*
X152497571Y-109014235D01*
X152473773Y-109020196D01*
X152449504Y-109023796D01*
X152425000Y-109025000D01*
X151175000Y-109025000D01*
X151150496Y-109023796D01*
X151126227Y-109020196D01*
X151102429Y-109014235D01*
X151079329Y-109005970D01*
X151057151Y-108995480D01*
X151036107Y-108982867D01*
X151016402Y-108968253D01*
X150998223Y-108951777D01*
X150981747Y-108933598D01*
X150967133Y-108913893D01*
X150954520Y-108892849D01*
X150944030Y-108870671D01*
X150935765Y-108847571D01*
X150929804Y-108823773D01*
X150926204Y-108799504D01*
X150925000Y-108775000D01*
X150925000Y-108025000D01*
X150926204Y-108000496D01*
X150929804Y-107976227D01*
X150935765Y-107952429D01*
X150944030Y-107929329D01*
X150954520Y-107907151D01*
X150967133Y-107886107D01*
X150981747Y-107866402D01*
X150998223Y-107848223D01*
X151016402Y-107831747D01*
X151036107Y-107817133D01*
X151057151Y-107804520D01*
X151079329Y-107794030D01*
X151102429Y-107785765D01*
X151126227Y-107779804D01*
X151150496Y-107776204D01*
X151175000Y-107775000D01*
X152425000Y-107775000D01*
X152449504Y-107776204D01*
G37*
G36*
X152449504Y-104976204D02*
G01*
X152473773Y-104979804D01*
X152497571Y-104985765D01*
X152520671Y-104994030D01*
X152542849Y-105004520D01*
X152563893Y-105017133D01*
X152583598Y-105031747D01*
X152601777Y-105048223D01*
X152618253Y-105066402D01*
X152632867Y-105086107D01*
X152645480Y-105107151D01*
X152655970Y-105129329D01*
X152664235Y-105152429D01*
X152670196Y-105176227D01*
X152673796Y-105200496D01*
X152675000Y-105225000D01*
X152675000Y-105975000D01*
X152673796Y-105999504D01*
X152670196Y-106023773D01*
X152664235Y-106047571D01*
X152655970Y-106070671D01*
X152645480Y-106092849D01*
X152632867Y-106113893D01*
X152618253Y-106133598D01*
X152601777Y-106151777D01*
X152583598Y-106168253D01*
X152563893Y-106182867D01*
X152542849Y-106195480D01*
X152520671Y-106205970D01*
X152497571Y-106214235D01*
X152473773Y-106220196D01*
X152449504Y-106223796D01*
X152425000Y-106225000D01*
X151175000Y-106225000D01*
X151150496Y-106223796D01*
X151126227Y-106220196D01*
X151102429Y-106214235D01*
X151079329Y-106205970D01*
X151057151Y-106195480D01*
X151036107Y-106182867D01*
X151016402Y-106168253D01*
X150998223Y-106151777D01*
X150981747Y-106133598D01*
X150967133Y-106113893D01*
X150954520Y-106092849D01*
X150944030Y-106070671D01*
X150935765Y-106047571D01*
X150929804Y-106023773D01*
X150926204Y-105999504D01*
X150925000Y-105975000D01*
X150925000Y-105225000D01*
X150926204Y-105200496D01*
X150929804Y-105176227D01*
X150935765Y-105152429D01*
X150944030Y-105129329D01*
X150954520Y-105107151D01*
X150967133Y-105086107D01*
X150981747Y-105066402D01*
X150998223Y-105048223D01*
X151016402Y-105031747D01*
X151036107Y-105017133D01*
X151057151Y-105004520D01*
X151079329Y-104994030D01*
X151102429Y-104985765D01*
X151126227Y-104979804D01*
X151150496Y-104976204D01*
X151175000Y-104975000D01*
X152425000Y-104975000D01*
X152449504Y-104976204D01*
G37*
G36*
X139599504Y-111926204D02*
G01*
X139623773Y-111929804D01*
X139647571Y-111935765D01*
X139670671Y-111944030D01*
X139692849Y-111954520D01*
X139713893Y-111967133D01*
X139733598Y-111981747D01*
X139751777Y-111998223D01*
X139768253Y-112016402D01*
X139782867Y-112036107D01*
X139795480Y-112057151D01*
X139805970Y-112079329D01*
X139814235Y-112102429D01*
X139820196Y-112126227D01*
X139823796Y-112150496D01*
X139825000Y-112175000D01*
X139825000Y-113425000D01*
X139823796Y-113449504D01*
X139820196Y-113473773D01*
X139814235Y-113497571D01*
X139805970Y-113520671D01*
X139795480Y-113542849D01*
X139782867Y-113563893D01*
X139768253Y-113583598D01*
X139751777Y-113601777D01*
X139733598Y-113618253D01*
X139713893Y-113632867D01*
X139692849Y-113645480D01*
X139670671Y-113655970D01*
X139647571Y-113664235D01*
X139623773Y-113670196D01*
X139599504Y-113673796D01*
X139575000Y-113675000D01*
X138825000Y-113675000D01*
X138800496Y-113673796D01*
X138776227Y-113670196D01*
X138752429Y-113664235D01*
X138729329Y-113655970D01*
X138707151Y-113645480D01*
X138686107Y-113632867D01*
X138666402Y-113618253D01*
X138648223Y-113601777D01*
X138631747Y-113583598D01*
X138617133Y-113563893D01*
X138604520Y-113542849D01*
X138594030Y-113520671D01*
X138585765Y-113497571D01*
X138579804Y-113473773D01*
X138576204Y-113449504D01*
X138575000Y-113425000D01*
X138575000Y-112175000D01*
X138576204Y-112150496D01*
X138579804Y-112126227D01*
X138585765Y-112102429D01*
X138594030Y-112079329D01*
X138604520Y-112057151D01*
X138617133Y-112036107D01*
X138631747Y-112016402D01*
X138648223Y-111998223D01*
X138666402Y-111981747D01*
X138686107Y-111967133D01*
X138707151Y-111954520D01*
X138729329Y-111944030D01*
X138752429Y-111935765D01*
X138776227Y-111929804D01*
X138800496Y-111926204D01*
X138825000Y-111925000D01*
X139575000Y-111925000D01*
X139599504Y-111926204D01*
G37*
G36*
X136799504Y-111926204D02*
G01*
X136823773Y-111929804D01*
X136847571Y-111935765D01*
X136870671Y-111944030D01*
X136892849Y-111954520D01*
X136913893Y-111967133D01*
X136933598Y-111981747D01*
X136951777Y-111998223D01*
X136968253Y-112016402D01*
X136982867Y-112036107D01*
X136995480Y-112057151D01*
X137005970Y-112079329D01*
X137014235Y-112102429D01*
X137020196Y-112126227D01*
X137023796Y-112150496D01*
X137025000Y-112175000D01*
X137025000Y-113425000D01*
X137023796Y-113449504D01*
X137020196Y-113473773D01*
X137014235Y-113497571D01*
X137005970Y-113520671D01*
X136995480Y-113542849D01*
X136982867Y-113563893D01*
X136968253Y-113583598D01*
X136951777Y-113601777D01*
X136933598Y-113618253D01*
X136913893Y-113632867D01*
X136892849Y-113645480D01*
X136870671Y-113655970D01*
X136847571Y-113664235D01*
X136823773Y-113670196D01*
X136799504Y-113673796D01*
X136775000Y-113675000D01*
X136025000Y-113675000D01*
X136000496Y-113673796D01*
X135976227Y-113670196D01*
X135952429Y-113664235D01*
X135929329Y-113655970D01*
X135907151Y-113645480D01*
X135886107Y-113632867D01*
X135866402Y-113618253D01*
X135848223Y-113601777D01*
X135831747Y-113583598D01*
X135817133Y-113563893D01*
X135804520Y-113542849D01*
X135794030Y-113520671D01*
X135785765Y-113497571D01*
X135779804Y-113473773D01*
X135776204Y-113449504D01*
X135775000Y-113425000D01*
X135775000Y-112175000D01*
X135776204Y-112150496D01*
X135779804Y-112126227D01*
X135785765Y-112102429D01*
X135794030Y-112079329D01*
X135804520Y-112057151D01*
X135817133Y-112036107D01*
X135831747Y-112016402D01*
X135848223Y-111998223D01*
X135866402Y-111981747D01*
X135886107Y-111967133D01*
X135907151Y-111954520D01*
X135929329Y-111944030D01*
X135952429Y-111935765D01*
X135976227Y-111929804D01*
X136000496Y-111926204D01*
X136025000Y-111925000D01*
X136775000Y-111925000D01*
X136799504Y-111926204D01*
G37*
G36*
X148199504Y-111926204D02*
G01*
X148223773Y-111929804D01*
X148247571Y-111935765D01*
X148270671Y-111944030D01*
X148292849Y-111954520D01*
X148313893Y-111967133D01*
X148333598Y-111981747D01*
X148351777Y-111998223D01*
X148368253Y-112016402D01*
X148382867Y-112036107D01*
X148395480Y-112057151D01*
X148405970Y-112079329D01*
X148414235Y-112102429D01*
X148420196Y-112126227D01*
X148423796Y-112150496D01*
X148425000Y-112175000D01*
X148425000Y-113425000D01*
X148423796Y-113449504D01*
X148420196Y-113473773D01*
X148414235Y-113497571D01*
X148405970Y-113520671D01*
X148395480Y-113542849D01*
X148382867Y-113563893D01*
X148368253Y-113583598D01*
X148351777Y-113601777D01*
X148333598Y-113618253D01*
X148313893Y-113632867D01*
X148292849Y-113645480D01*
X148270671Y-113655970D01*
X148247571Y-113664235D01*
X148223773Y-113670196D01*
X148199504Y-113673796D01*
X148175000Y-113675000D01*
X147425000Y-113675000D01*
X147400496Y-113673796D01*
X147376227Y-113670196D01*
X147352429Y-113664235D01*
X147329329Y-113655970D01*
X147307151Y-113645480D01*
X147286107Y-113632867D01*
X147266402Y-113618253D01*
X147248223Y-113601777D01*
X147231747Y-113583598D01*
X147217133Y-113563893D01*
X147204520Y-113542849D01*
X147194030Y-113520671D01*
X147185765Y-113497571D01*
X147179804Y-113473773D01*
X147176204Y-113449504D01*
X147175000Y-113425000D01*
X147175000Y-112175000D01*
X147176204Y-112150496D01*
X147179804Y-112126227D01*
X147185765Y-112102429D01*
X147194030Y-112079329D01*
X147204520Y-112057151D01*
X147217133Y-112036107D01*
X147231747Y-112016402D01*
X147248223Y-111998223D01*
X147266402Y-111981747D01*
X147286107Y-111967133D01*
X147307151Y-111954520D01*
X147329329Y-111944030D01*
X147352429Y-111935765D01*
X147376227Y-111929804D01*
X147400496Y-111926204D01*
X147425000Y-111925000D01*
X148175000Y-111925000D01*
X148199504Y-111926204D01*
G37*
G36*
X150999504Y-111926204D02*
G01*
X151023773Y-111929804D01*
X151047571Y-111935765D01*
X151070671Y-111944030D01*
X151092849Y-111954520D01*
X151113893Y-111967133D01*
X151133598Y-111981747D01*
X151151777Y-111998223D01*
X151168253Y-112016402D01*
X151182867Y-112036107D01*
X151195480Y-112057151D01*
X151205970Y-112079329D01*
X151214235Y-112102429D01*
X151220196Y-112126227D01*
X151223796Y-112150496D01*
X151225000Y-112175000D01*
X151225000Y-113425000D01*
X151223796Y-113449504D01*
X151220196Y-113473773D01*
X151214235Y-113497571D01*
X151205970Y-113520671D01*
X151195480Y-113542849D01*
X151182867Y-113563893D01*
X151168253Y-113583598D01*
X151151777Y-113601777D01*
X151133598Y-113618253D01*
X151113893Y-113632867D01*
X151092849Y-113645480D01*
X151070671Y-113655970D01*
X151047571Y-113664235D01*
X151023773Y-113670196D01*
X150999504Y-113673796D01*
X150975000Y-113675000D01*
X150225000Y-113675000D01*
X150200496Y-113673796D01*
X150176227Y-113670196D01*
X150152429Y-113664235D01*
X150129329Y-113655970D01*
X150107151Y-113645480D01*
X150086107Y-113632867D01*
X150066402Y-113618253D01*
X150048223Y-113601777D01*
X150031747Y-113583598D01*
X150017133Y-113563893D01*
X150004520Y-113542849D01*
X149994030Y-113520671D01*
X149985765Y-113497571D01*
X149979804Y-113473773D01*
X149976204Y-113449504D01*
X149975000Y-113425000D01*
X149975000Y-112175000D01*
X149976204Y-112150496D01*
X149979804Y-112126227D01*
X149985765Y-112102429D01*
X149994030Y-112079329D01*
X150004520Y-112057151D01*
X150017133Y-112036107D01*
X150031747Y-112016402D01*
X150048223Y-111998223D01*
X150066402Y-111981747D01*
X150086107Y-111967133D01*
X150107151Y-111954520D01*
X150129329Y-111944030D01*
X150152429Y-111935765D01*
X150176227Y-111929804D01*
X150200496Y-111926204D01*
X150225000Y-111925000D01*
X150975000Y-111925000D01*
X150999504Y-111926204D01*
G37*
D12*
X135350000Y-97800000D03*
X127050000Y-97800000D03*
D10*
G36*
X139649504Y-105776204D02*
G01*
X139673773Y-105779804D01*
X139697571Y-105785765D01*
X139720671Y-105794030D01*
X139742849Y-105804520D01*
X139763893Y-105817133D01*
X139783598Y-105831747D01*
X139801777Y-105848223D01*
X139818253Y-105866402D01*
X139832867Y-105886107D01*
X139845480Y-105907151D01*
X139855970Y-105929329D01*
X139864235Y-105952429D01*
X139870196Y-105976227D01*
X139873796Y-106000496D01*
X139875000Y-106025000D01*
X139875000Y-106775000D01*
X139873796Y-106799504D01*
X139870196Y-106823773D01*
X139864235Y-106847571D01*
X139855970Y-106870671D01*
X139845480Y-106892849D01*
X139832867Y-106913893D01*
X139818253Y-106933598D01*
X139801777Y-106951777D01*
X139783598Y-106968253D01*
X139763893Y-106982867D01*
X139742849Y-106995480D01*
X139720671Y-107005970D01*
X139697571Y-107014235D01*
X139673773Y-107020196D01*
X139649504Y-107023796D01*
X139625000Y-107025000D01*
X138375000Y-107025000D01*
X138350496Y-107023796D01*
X138326227Y-107020196D01*
X138302429Y-107014235D01*
X138279329Y-107005970D01*
X138257151Y-106995480D01*
X138236107Y-106982867D01*
X138216402Y-106968253D01*
X138198223Y-106951777D01*
X138181747Y-106933598D01*
X138167133Y-106913893D01*
X138154520Y-106892849D01*
X138144030Y-106870671D01*
X138135765Y-106847571D01*
X138129804Y-106823773D01*
X138126204Y-106799504D01*
X138125000Y-106775000D01*
X138125000Y-106025000D01*
X138126204Y-106000496D01*
X138129804Y-105976227D01*
X138135765Y-105952429D01*
X138144030Y-105929329D01*
X138154520Y-105907151D01*
X138167133Y-105886107D01*
X138181747Y-105866402D01*
X138198223Y-105848223D01*
X138216402Y-105831747D01*
X138236107Y-105817133D01*
X138257151Y-105804520D01*
X138279329Y-105794030D01*
X138302429Y-105785765D01*
X138326227Y-105779804D01*
X138350496Y-105776204D01*
X138375000Y-105775000D01*
X139625000Y-105775000D01*
X139649504Y-105776204D01*
G37*
G36*
X139649504Y-108576204D02*
G01*
X139673773Y-108579804D01*
X139697571Y-108585765D01*
X139720671Y-108594030D01*
X139742849Y-108604520D01*
X139763893Y-108617133D01*
X139783598Y-108631747D01*
X139801777Y-108648223D01*
X139818253Y-108666402D01*
X139832867Y-108686107D01*
X139845480Y-108707151D01*
X139855970Y-108729329D01*
X139864235Y-108752429D01*
X139870196Y-108776227D01*
X139873796Y-108800496D01*
X139875000Y-108825000D01*
X139875000Y-109575000D01*
X139873796Y-109599504D01*
X139870196Y-109623773D01*
X139864235Y-109647571D01*
X139855970Y-109670671D01*
X139845480Y-109692849D01*
X139832867Y-109713893D01*
X139818253Y-109733598D01*
X139801777Y-109751777D01*
X139783598Y-109768253D01*
X139763893Y-109782867D01*
X139742849Y-109795480D01*
X139720671Y-109805970D01*
X139697571Y-109814235D01*
X139673773Y-109820196D01*
X139649504Y-109823796D01*
X139625000Y-109825000D01*
X138375000Y-109825000D01*
X138350496Y-109823796D01*
X138326227Y-109820196D01*
X138302429Y-109814235D01*
X138279329Y-109805970D01*
X138257151Y-109795480D01*
X138236107Y-109782867D01*
X138216402Y-109768253D01*
X138198223Y-109751777D01*
X138181747Y-109733598D01*
X138167133Y-109713893D01*
X138154520Y-109692849D01*
X138144030Y-109670671D01*
X138135765Y-109647571D01*
X138129804Y-109623773D01*
X138126204Y-109599504D01*
X138125000Y-109575000D01*
X138125000Y-108825000D01*
X138126204Y-108800496D01*
X138129804Y-108776227D01*
X138135765Y-108752429D01*
X138144030Y-108729329D01*
X138154520Y-108707151D01*
X138167133Y-108686107D01*
X138181747Y-108666402D01*
X138198223Y-108648223D01*
X138216402Y-108631747D01*
X138236107Y-108617133D01*
X138257151Y-108604520D01*
X138279329Y-108594030D01*
X138302429Y-108585765D01*
X138326227Y-108579804D01*
X138350496Y-108576204D01*
X138375000Y-108575000D01*
X139625000Y-108575000D01*
X139649504Y-108576204D01*
G37*
G36*
X155399504Y-108726204D02*
G01*
X155423773Y-108729804D01*
X155447571Y-108735765D01*
X155470671Y-108744030D01*
X155492849Y-108754520D01*
X155513893Y-108767133D01*
X155533598Y-108781747D01*
X155551777Y-108798223D01*
X155568253Y-108816402D01*
X155582867Y-108836107D01*
X155595480Y-108857151D01*
X155605970Y-108879329D01*
X155614235Y-108902429D01*
X155620196Y-108926227D01*
X155623796Y-108950496D01*
X155625000Y-108975000D01*
X155625000Y-110225000D01*
X155623796Y-110249504D01*
X155620196Y-110273773D01*
X155614235Y-110297571D01*
X155605970Y-110320671D01*
X155595480Y-110342849D01*
X155582867Y-110363893D01*
X155568253Y-110383598D01*
X155551777Y-110401777D01*
X155533598Y-110418253D01*
X155513893Y-110432867D01*
X155492849Y-110445480D01*
X155470671Y-110455970D01*
X155447571Y-110464235D01*
X155423773Y-110470196D01*
X155399504Y-110473796D01*
X155375000Y-110475000D01*
X154625000Y-110475000D01*
X154600496Y-110473796D01*
X154576227Y-110470196D01*
X154552429Y-110464235D01*
X154529329Y-110455970D01*
X154507151Y-110445480D01*
X154486107Y-110432867D01*
X154466402Y-110418253D01*
X154448223Y-110401777D01*
X154431747Y-110383598D01*
X154417133Y-110363893D01*
X154404520Y-110342849D01*
X154394030Y-110320671D01*
X154385765Y-110297571D01*
X154379804Y-110273773D01*
X154376204Y-110249504D01*
X154375000Y-110225000D01*
X154375000Y-108975000D01*
X154376204Y-108950496D01*
X154379804Y-108926227D01*
X154385765Y-108902429D01*
X154394030Y-108879329D01*
X154404520Y-108857151D01*
X154417133Y-108836107D01*
X154431747Y-108816402D01*
X154448223Y-108798223D01*
X154466402Y-108781747D01*
X154486107Y-108767133D01*
X154507151Y-108754520D01*
X154529329Y-108744030D01*
X154552429Y-108735765D01*
X154576227Y-108729804D01*
X154600496Y-108726204D01*
X154625000Y-108725000D01*
X155375000Y-108725000D01*
X155399504Y-108726204D01*
G37*
G36*
X158199504Y-108726204D02*
G01*
X158223773Y-108729804D01*
X158247571Y-108735765D01*
X158270671Y-108744030D01*
X158292849Y-108754520D01*
X158313893Y-108767133D01*
X158333598Y-108781747D01*
X158351777Y-108798223D01*
X158368253Y-108816402D01*
X158382867Y-108836107D01*
X158395480Y-108857151D01*
X158405970Y-108879329D01*
X158414235Y-108902429D01*
X158420196Y-108926227D01*
X158423796Y-108950496D01*
X158425000Y-108975000D01*
X158425000Y-110225000D01*
X158423796Y-110249504D01*
X158420196Y-110273773D01*
X158414235Y-110297571D01*
X158405970Y-110320671D01*
X158395480Y-110342849D01*
X158382867Y-110363893D01*
X158368253Y-110383598D01*
X158351777Y-110401777D01*
X158333598Y-110418253D01*
X158313893Y-110432867D01*
X158292849Y-110445480D01*
X158270671Y-110455970D01*
X158247571Y-110464235D01*
X158223773Y-110470196D01*
X158199504Y-110473796D01*
X158175000Y-110475000D01*
X157425000Y-110475000D01*
X157400496Y-110473796D01*
X157376227Y-110470196D01*
X157352429Y-110464235D01*
X157329329Y-110455970D01*
X157307151Y-110445480D01*
X157286107Y-110432867D01*
X157266402Y-110418253D01*
X157248223Y-110401777D01*
X157231747Y-110383598D01*
X157217133Y-110363893D01*
X157204520Y-110342849D01*
X157194030Y-110320671D01*
X157185765Y-110297571D01*
X157179804Y-110273773D01*
X157176204Y-110249504D01*
X157175000Y-110225000D01*
X157175000Y-108975000D01*
X157176204Y-108950496D01*
X157179804Y-108926227D01*
X157185765Y-108902429D01*
X157194030Y-108879329D01*
X157204520Y-108857151D01*
X157217133Y-108836107D01*
X157231747Y-108816402D01*
X157248223Y-108798223D01*
X157266402Y-108781747D01*
X157286107Y-108767133D01*
X157307151Y-108754520D01*
X157329329Y-108744030D01*
X157352429Y-108735765D01*
X157376227Y-108729804D01*
X157400496Y-108726204D01*
X157425000Y-108725000D01*
X158175000Y-108725000D01*
X158199504Y-108726204D01*
G37*
G36*
X153124504Y-99801204D02*
G01*
X153148773Y-99804804D01*
X153172571Y-99810765D01*
X153195671Y-99819030D01*
X153217849Y-99829520D01*
X153238893Y-99842133D01*
X153258598Y-99856747D01*
X153276777Y-99873223D01*
X153293253Y-99891402D01*
X153307867Y-99911107D01*
X153320480Y-99932151D01*
X153330970Y-99954329D01*
X153339235Y-99977429D01*
X153345196Y-100001227D01*
X153348796Y-100025496D01*
X153350000Y-100050000D01*
X153350000Y-101150000D01*
X153348796Y-101174504D01*
X153345196Y-101198773D01*
X153339235Y-101222571D01*
X153330970Y-101245671D01*
X153320480Y-101267849D01*
X153307867Y-101288893D01*
X153293253Y-101308598D01*
X153276777Y-101326777D01*
X153258598Y-101343253D01*
X153238893Y-101357867D01*
X153217849Y-101370480D01*
X153195671Y-101380970D01*
X153172571Y-101389235D01*
X153148773Y-101395196D01*
X153124504Y-101398796D01*
X153100000Y-101400000D01*
X150100000Y-101400000D01*
X150075496Y-101398796D01*
X150051227Y-101395196D01*
X150027429Y-101389235D01*
X150004329Y-101380970D01*
X149982151Y-101370480D01*
X149961107Y-101357867D01*
X149941402Y-101343253D01*
X149923223Y-101326777D01*
X149906747Y-101308598D01*
X149892133Y-101288893D01*
X149879520Y-101267849D01*
X149869030Y-101245671D01*
X149860765Y-101222571D01*
X149854804Y-101198773D01*
X149851204Y-101174504D01*
X149850000Y-101150000D01*
X149850000Y-100050000D01*
X149851204Y-100025496D01*
X149854804Y-100001227D01*
X149860765Y-99977429D01*
X149869030Y-99954329D01*
X149879520Y-99932151D01*
X149892133Y-99911107D01*
X149906747Y-99891402D01*
X149923223Y-99873223D01*
X149941402Y-99856747D01*
X149961107Y-99842133D01*
X149982151Y-99829520D01*
X150004329Y-99819030D01*
X150027429Y-99810765D01*
X150051227Y-99804804D01*
X150075496Y-99801204D01*
X150100000Y-99800000D01*
X153100000Y-99800000D01*
X153124504Y-99801204D01*
G37*
G36*
X158724865Y-99801202D02*
G01*
X158749095Y-99804796D01*
X158772855Y-99810748D01*
X158795918Y-99819000D01*
X158818061Y-99829472D01*
X158839070Y-99842065D01*
X158858745Y-99856657D01*
X158876894Y-99873106D01*
X158893343Y-99891255D01*
X158907935Y-99910930D01*
X158920528Y-99931939D01*
X158931000Y-99954082D01*
X158939252Y-99977145D01*
X158945204Y-100000905D01*
X158948798Y-100025135D01*
X158950000Y-100049600D01*
X158950000Y-101150400D01*
X158948798Y-101174865D01*
X158945204Y-101199095D01*
X158939252Y-101222855D01*
X158931000Y-101245918D01*
X158920528Y-101268061D01*
X158907935Y-101289070D01*
X158893343Y-101308745D01*
X158876894Y-101326894D01*
X158858745Y-101343343D01*
X158839070Y-101357935D01*
X158818061Y-101370528D01*
X158795918Y-101381000D01*
X158772855Y-101389252D01*
X158749095Y-101395204D01*
X158724865Y-101398798D01*
X158700400Y-101400000D01*
X155699600Y-101400000D01*
X155675135Y-101398798D01*
X155650905Y-101395204D01*
X155627145Y-101389252D01*
X155604082Y-101381000D01*
X155581939Y-101370528D01*
X155560930Y-101357935D01*
X155541255Y-101343343D01*
X155523106Y-101326894D01*
X155506657Y-101308745D01*
X155492065Y-101289070D01*
X155479472Y-101268061D01*
X155469000Y-101245918D01*
X155460748Y-101222855D01*
X155454796Y-101199095D01*
X155451202Y-101174865D01*
X155450000Y-101150400D01*
X155450000Y-100049600D01*
X155451202Y-100025135D01*
X155454796Y-100000905D01*
X155460748Y-99977145D01*
X155469000Y-99954082D01*
X155479472Y-99931939D01*
X155492065Y-99910930D01*
X155506657Y-99891255D01*
X155523106Y-99873106D01*
X155541255Y-99856657D01*
X155560930Y-99842065D01*
X155581939Y-99829472D01*
X155604082Y-99819000D01*
X155627145Y-99810748D01*
X155650905Y-99804796D01*
X155675135Y-99801202D01*
X155699600Y-99800000D01*
X158700400Y-99800000D01*
X158724865Y-99801202D01*
G37*
M02*
