G04 #@! TF.GenerationSoftware,KiCad,Pcbnew,(5.1.5)-3*
G04 #@! TF.CreationDate,2020-03-21T18:19:31+03:00*
G04 #@! TF.ProjectId,CAN+Power v0.1,43414e2b-506f-4776-9572-2076302e312e,rev?*
G04 #@! TF.SameCoordinates,Original*
G04 #@! TF.FileFunction,Paste,Bot*
G04 #@! TF.FilePolarity,Positive*
%FSLAX46Y46*%
G04 Gerber Fmt 4.6, Leading zero omitted, Abs format (unit mm)*
G04 Created by KiCad (PCBNEW (5.1.5)-3) date 2020-03-21 18:19:31*
%MOMM*%
%LPD*%
G04 APERTURE LIST*
%ADD10C,0.100000*%
%ADD11R,0.900000X0.800000*%
G04 APERTURE END LIST*
D10*
G36*
X149349504Y-87836204D02*
G01*
X149373773Y-87839804D01*
X149397571Y-87845765D01*
X149420671Y-87854030D01*
X149442849Y-87864520D01*
X149463893Y-87877133D01*
X149483598Y-87891747D01*
X149501777Y-87908223D01*
X149518253Y-87926402D01*
X149532867Y-87946107D01*
X149545480Y-87967151D01*
X149555970Y-87989329D01*
X149564235Y-88012429D01*
X149570196Y-88036227D01*
X149573796Y-88060496D01*
X149575000Y-88085000D01*
X149575000Y-88835000D01*
X149573796Y-88859504D01*
X149570196Y-88883773D01*
X149564235Y-88907571D01*
X149555970Y-88930671D01*
X149545480Y-88952849D01*
X149532867Y-88973893D01*
X149518253Y-88993598D01*
X149501777Y-89011777D01*
X149483598Y-89028253D01*
X149463893Y-89042867D01*
X149442849Y-89055480D01*
X149420671Y-89065970D01*
X149397571Y-89074235D01*
X149373773Y-89080196D01*
X149349504Y-89083796D01*
X149325000Y-89085000D01*
X148075000Y-89085000D01*
X148050496Y-89083796D01*
X148026227Y-89080196D01*
X148002429Y-89074235D01*
X147979329Y-89065970D01*
X147957151Y-89055480D01*
X147936107Y-89042867D01*
X147916402Y-89028253D01*
X147898223Y-89011777D01*
X147881747Y-88993598D01*
X147867133Y-88973893D01*
X147854520Y-88952849D01*
X147844030Y-88930671D01*
X147835765Y-88907571D01*
X147829804Y-88883773D01*
X147826204Y-88859504D01*
X147825000Y-88835000D01*
X147825000Y-88085000D01*
X147826204Y-88060496D01*
X147829804Y-88036227D01*
X147835765Y-88012429D01*
X147844030Y-87989329D01*
X147854520Y-87967151D01*
X147867133Y-87946107D01*
X147881747Y-87926402D01*
X147898223Y-87908223D01*
X147916402Y-87891747D01*
X147936107Y-87877133D01*
X147957151Y-87864520D01*
X147979329Y-87854030D01*
X148002429Y-87845765D01*
X148026227Y-87839804D01*
X148050496Y-87836204D01*
X148075000Y-87835000D01*
X149325000Y-87835000D01*
X149349504Y-87836204D01*
G37*
G36*
X149349504Y-85036204D02*
G01*
X149373773Y-85039804D01*
X149397571Y-85045765D01*
X149420671Y-85054030D01*
X149442849Y-85064520D01*
X149463893Y-85077133D01*
X149483598Y-85091747D01*
X149501777Y-85108223D01*
X149518253Y-85126402D01*
X149532867Y-85146107D01*
X149545480Y-85167151D01*
X149555970Y-85189329D01*
X149564235Y-85212429D01*
X149570196Y-85236227D01*
X149573796Y-85260496D01*
X149575000Y-85285000D01*
X149575000Y-86035000D01*
X149573796Y-86059504D01*
X149570196Y-86083773D01*
X149564235Y-86107571D01*
X149555970Y-86130671D01*
X149545480Y-86152849D01*
X149532867Y-86173893D01*
X149518253Y-86193598D01*
X149501777Y-86211777D01*
X149483598Y-86228253D01*
X149463893Y-86242867D01*
X149442849Y-86255480D01*
X149420671Y-86265970D01*
X149397571Y-86274235D01*
X149373773Y-86280196D01*
X149349504Y-86283796D01*
X149325000Y-86285000D01*
X148075000Y-86285000D01*
X148050496Y-86283796D01*
X148026227Y-86280196D01*
X148002429Y-86274235D01*
X147979329Y-86265970D01*
X147957151Y-86255480D01*
X147936107Y-86242867D01*
X147916402Y-86228253D01*
X147898223Y-86211777D01*
X147881747Y-86193598D01*
X147867133Y-86173893D01*
X147854520Y-86152849D01*
X147844030Y-86130671D01*
X147835765Y-86107571D01*
X147829804Y-86083773D01*
X147826204Y-86059504D01*
X147825000Y-86035000D01*
X147825000Y-85285000D01*
X147826204Y-85260496D01*
X147829804Y-85236227D01*
X147835765Y-85212429D01*
X147844030Y-85189329D01*
X147854520Y-85167151D01*
X147867133Y-85146107D01*
X147881747Y-85126402D01*
X147898223Y-85108223D01*
X147916402Y-85091747D01*
X147936107Y-85077133D01*
X147957151Y-85064520D01*
X147979329Y-85054030D01*
X148002429Y-85045765D01*
X148026227Y-85039804D01*
X148050496Y-85036204D01*
X148075000Y-85035000D01*
X149325000Y-85035000D01*
X149349504Y-85036204D01*
G37*
G36*
X149349504Y-82636204D02*
G01*
X149373773Y-82639804D01*
X149397571Y-82645765D01*
X149420671Y-82654030D01*
X149442849Y-82664520D01*
X149463893Y-82677133D01*
X149483598Y-82691747D01*
X149501777Y-82708223D01*
X149518253Y-82726402D01*
X149532867Y-82746107D01*
X149545480Y-82767151D01*
X149555970Y-82789329D01*
X149564235Y-82812429D01*
X149570196Y-82836227D01*
X149573796Y-82860496D01*
X149575000Y-82885000D01*
X149575000Y-83635000D01*
X149573796Y-83659504D01*
X149570196Y-83683773D01*
X149564235Y-83707571D01*
X149555970Y-83730671D01*
X149545480Y-83752849D01*
X149532867Y-83773893D01*
X149518253Y-83793598D01*
X149501777Y-83811777D01*
X149483598Y-83828253D01*
X149463893Y-83842867D01*
X149442849Y-83855480D01*
X149420671Y-83865970D01*
X149397571Y-83874235D01*
X149373773Y-83880196D01*
X149349504Y-83883796D01*
X149325000Y-83885000D01*
X148075000Y-83885000D01*
X148050496Y-83883796D01*
X148026227Y-83880196D01*
X148002429Y-83874235D01*
X147979329Y-83865970D01*
X147957151Y-83855480D01*
X147936107Y-83842867D01*
X147916402Y-83828253D01*
X147898223Y-83811777D01*
X147881747Y-83793598D01*
X147867133Y-83773893D01*
X147854520Y-83752849D01*
X147844030Y-83730671D01*
X147835765Y-83707571D01*
X147829804Y-83683773D01*
X147826204Y-83659504D01*
X147825000Y-83635000D01*
X147825000Y-82885000D01*
X147826204Y-82860496D01*
X147829804Y-82836227D01*
X147835765Y-82812429D01*
X147844030Y-82789329D01*
X147854520Y-82767151D01*
X147867133Y-82746107D01*
X147881747Y-82726402D01*
X147898223Y-82708223D01*
X147916402Y-82691747D01*
X147936107Y-82677133D01*
X147957151Y-82664520D01*
X147979329Y-82654030D01*
X148002429Y-82645765D01*
X148026227Y-82639804D01*
X148050496Y-82636204D01*
X148075000Y-82635000D01*
X149325000Y-82635000D01*
X149349504Y-82636204D01*
G37*
G36*
X149349504Y-79836204D02*
G01*
X149373773Y-79839804D01*
X149397571Y-79845765D01*
X149420671Y-79854030D01*
X149442849Y-79864520D01*
X149463893Y-79877133D01*
X149483598Y-79891747D01*
X149501777Y-79908223D01*
X149518253Y-79926402D01*
X149532867Y-79946107D01*
X149545480Y-79967151D01*
X149555970Y-79989329D01*
X149564235Y-80012429D01*
X149570196Y-80036227D01*
X149573796Y-80060496D01*
X149575000Y-80085000D01*
X149575000Y-80835000D01*
X149573796Y-80859504D01*
X149570196Y-80883773D01*
X149564235Y-80907571D01*
X149555970Y-80930671D01*
X149545480Y-80952849D01*
X149532867Y-80973893D01*
X149518253Y-80993598D01*
X149501777Y-81011777D01*
X149483598Y-81028253D01*
X149463893Y-81042867D01*
X149442849Y-81055480D01*
X149420671Y-81065970D01*
X149397571Y-81074235D01*
X149373773Y-81080196D01*
X149349504Y-81083796D01*
X149325000Y-81085000D01*
X148075000Y-81085000D01*
X148050496Y-81083796D01*
X148026227Y-81080196D01*
X148002429Y-81074235D01*
X147979329Y-81065970D01*
X147957151Y-81055480D01*
X147936107Y-81042867D01*
X147916402Y-81028253D01*
X147898223Y-81011777D01*
X147881747Y-80993598D01*
X147867133Y-80973893D01*
X147854520Y-80952849D01*
X147844030Y-80930671D01*
X147835765Y-80907571D01*
X147829804Y-80883773D01*
X147826204Y-80859504D01*
X147825000Y-80835000D01*
X147825000Y-80085000D01*
X147826204Y-80060496D01*
X147829804Y-80036227D01*
X147835765Y-80012429D01*
X147844030Y-79989329D01*
X147854520Y-79967151D01*
X147867133Y-79946107D01*
X147881747Y-79926402D01*
X147898223Y-79908223D01*
X147916402Y-79891747D01*
X147936107Y-79877133D01*
X147957151Y-79864520D01*
X147979329Y-79854030D01*
X148002429Y-79845765D01*
X148026227Y-79839804D01*
X148050496Y-79836204D01*
X148075000Y-79835000D01*
X149325000Y-79835000D01*
X149349504Y-79836204D01*
G37*
D11*
X144300000Y-84450000D03*
X146300000Y-85400000D03*
X146300000Y-83500000D03*
D10*
G36*
X142499504Y-84736204D02*
G01*
X142523773Y-84739804D01*
X142547571Y-84745765D01*
X142570671Y-84754030D01*
X142592849Y-84764520D01*
X142613893Y-84777133D01*
X142633598Y-84791747D01*
X142651777Y-84808223D01*
X142668253Y-84826402D01*
X142682867Y-84846107D01*
X142695480Y-84867151D01*
X142705970Y-84889329D01*
X142714235Y-84912429D01*
X142720196Y-84936227D01*
X142723796Y-84960496D01*
X142725000Y-84985000D01*
X142725000Y-85735000D01*
X142723796Y-85759504D01*
X142720196Y-85783773D01*
X142714235Y-85807571D01*
X142705970Y-85830671D01*
X142695480Y-85852849D01*
X142682867Y-85873893D01*
X142668253Y-85893598D01*
X142651777Y-85911777D01*
X142633598Y-85928253D01*
X142613893Y-85942867D01*
X142592849Y-85955480D01*
X142570671Y-85965970D01*
X142547571Y-85974235D01*
X142523773Y-85980196D01*
X142499504Y-85983796D01*
X142475000Y-85985000D01*
X141225000Y-85985000D01*
X141200496Y-85983796D01*
X141176227Y-85980196D01*
X141152429Y-85974235D01*
X141129329Y-85965970D01*
X141107151Y-85955480D01*
X141086107Y-85942867D01*
X141066402Y-85928253D01*
X141048223Y-85911777D01*
X141031747Y-85893598D01*
X141017133Y-85873893D01*
X141004520Y-85852849D01*
X140994030Y-85830671D01*
X140985765Y-85807571D01*
X140979804Y-85783773D01*
X140976204Y-85759504D01*
X140975000Y-85735000D01*
X140975000Y-84985000D01*
X140976204Y-84960496D01*
X140979804Y-84936227D01*
X140985765Y-84912429D01*
X140994030Y-84889329D01*
X141004520Y-84867151D01*
X141017133Y-84846107D01*
X141031747Y-84826402D01*
X141048223Y-84808223D01*
X141066402Y-84791747D01*
X141086107Y-84777133D01*
X141107151Y-84764520D01*
X141129329Y-84754030D01*
X141152429Y-84745765D01*
X141176227Y-84739804D01*
X141200496Y-84736204D01*
X141225000Y-84735000D01*
X142475000Y-84735000D01*
X142499504Y-84736204D01*
G37*
G36*
X142499504Y-87536204D02*
G01*
X142523773Y-87539804D01*
X142547571Y-87545765D01*
X142570671Y-87554030D01*
X142592849Y-87564520D01*
X142613893Y-87577133D01*
X142633598Y-87591747D01*
X142651777Y-87608223D01*
X142668253Y-87626402D01*
X142682867Y-87646107D01*
X142695480Y-87667151D01*
X142705970Y-87689329D01*
X142714235Y-87712429D01*
X142720196Y-87736227D01*
X142723796Y-87760496D01*
X142725000Y-87785000D01*
X142725000Y-88535000D01*
X142723796Y-88559504D01*
X142720196Y-88583773D01*
X142714235Y-88607571D01*
X142705970Y-88630671D01*
X142695480Y-88652849D01*
X142682867Y-88673893D01*
X142668253Y-88693598D01*
X142651777Y-88711777D01*
X142633598Y-88728253D01*
X142613893Y-88742867D01*
X142592849Y-88755480D01*
X142570671Y-88765970D01*
X142547571Y-88774235D01*
X142523773Y-88780196D01*
X142499504Y-88783796D01*
X142475000Y-88785000D01*
X141225000Y-88785000D01*
X141200496Y-88783796D01*
X141176227Y-88780196D01*
X141152429Y-88774235D01*
X141129329Y-88765970D01*
X141107151Y-88755480D01*
X141086107Y-88742867D01*
X141066402Y-88728253D01*
X141048223Y-88711777D01*
X141031747Y-88693598D01*
X141017133Y-88673893D01*
X141004520Y-88652849D01*
X140994030Y-88630671D01*
X140985765Y-88607571D01*
X140979804Y-88583773D01*
X140976204Y-88559504D01*
X140975000Y-88535000D01*
X140975000Y-87785000D01*
X140976204Y-87760496D01*
X140979804Y-87736227D01*
X140985765Y-87712429D01*
X140994030Y-87689329D01*
X141004520Y-87667151D01*
X141017133Y-87646107D01*
X141031747Y-87626402D01*
X141048223Y-87608223D01*
X141066402Y-87591747D01*
X141086107Y-87577133D01*
X141107151Y-87564520D01*
X141129329Y-87554030D01*
X141152429Y-87545765D01*
X141176227Y-87539804D01*
X141200496Y-87536204D01*
X141225000Y-87535000D01*
X142475000Y-87535000D01*
X142499504Y-87536204D01*
G37*
G36*
X142499504Y-80136204D02*
G01*
X142523773Y-80139804D01*
X142547571Y-80145765D01*
X142570671Y-80154030D01*
X142592849Y-80164520D01*
X142613893Y-80177133D01*
X142633598Y-80191747D01*
X142651777Y-80208223D01*
X142668253Y-80226402D01*
X142682867Y-80246107D01*
X142695480Y-80267151D01*
X142705970Y-80289329D01*
X142714235Y-80312429D01*
X142720196Y-80336227D01*
X142723796Y-80360496D01*
X142725000Y-80385000D01*
X142725000Y-81135000D01*
X142723796Y-81159504D01*
X142720196Y-81183773D01*
X142714235Y-81207571D01*
X142705970Y-81230671D01*
X142695480Y-81252849D01*
X142682867Y-81273893D01*
X142668253Y-81293598D01*
X142651777Y-81311777D01*
X142633598Y-81328253D01*
X142613893Y-81342867D01*
X142592849Y-81355480D01*
X142570671Y-81365970D01*
X142547571Y-81374235D01*
X142523773Y-81380196D01*
X142499504Y-81383796D01*
X142475000Y-81385000D01*
X141225000Y-81385000D01*
X141200496Y-81383796D01*
X141176227Y-81380196D01*
X141152429Y-81374235D01*
X141129329Y-81365970D01*
X141107151Y-81355480D01*
X141086107Y-81342867D01*
X141066402Y-81328253D01*
X141048223Y-81311777D01*
X141031747Y-81293598D01*
X141017133Y-81273893D01*
X141004520Y-81252849D01*
X140994030Y-81230671D01*
X140985765Y-81207571D01*
X140979804Y-81183773D01*
X140976204Y-81159504D01*
X140975000Y-81135000D01*
X140975000Y-80385000D01*
X140976204Y-80360496D01*
X140979804Y-80336227D01*
X140985765Y-80312429D01*
X140994030Y-80289329D01*
X141004520Y-80267151D01*
X141017133Y-80246107D01*
X141031747Y-80226402D01*
X141048223Y-80208223D01*
X141066402Y-80191747D01*
X141086107Y-80177133D01*
X141107151Y-80164520D01*
X141129329Y-80154030D01*
X141152429Y-80145765D01*
X141176227Y-80139804D01*
X141200496Y-80136204D01*
X141225000Y-80135000D01*
X142475000Y-80135000D01*
X142499504Y-80136204D01*
G37*
G36*
X142499504Y-82936204D02*
G01*
X142523773Y-82939804D01*
X142547571Y-82945765D01*
X142570671Y-82954030D01*
X142592849Y-82964520D01*
X142613893Y-82977133D01*
X142633598Y-82991747D01*
X142651777Y-83008223D01*
X142668253Y-83026402D01*
X142682867Y-83046107D01*
X142695480Y-83067151D01*
X142705970Y-83089329D01*
X142714235Y-83112429D01*
X142720196Y-83136227D01*
X142723796Y-83160496D01*
X142725000Y-83185000D01*
X142725000Y-83935000D01*
X142723796Y-83959504D01*
X142720196Y-83983773D01*
X142714235Y-84007571D01*
X142705970Y-84030671D01*
X142695480Y-84052849D01*
X142682867Y-84073893D01*
X142668253Y-84093598D01*
X142651777Y-84111777D01*
X142633598Y-84128253D01*
X142613893Y-84142867D01*
X142592849Y-84155480D01*
X142570671Y-84165970D01*
X142547571Y-84174235D01*
X142523773Y-84180196D01*
X142499504Y-84183796D01*
X142475000Y-84185000D01*
X141225000Y-84185000D01*
X141200496Y-84183796D01*
X141176227Y-84180196D01*
X141152429Y-84174235D01*
X141129329Y-84165970D01*
X141107151Y-84155480D01*
X141086107Y-84142867D01*
X141066402Y-84128253D01*
X141048223Y-84111777D01*
X141031747Y-84093598D01*
X141017133Y-84073893D01*
X141004520Y-84052849D01*
X140994030Y-84030671D01*
X140985765Y-84007571D01*
X140979804Y-83983773D01*
X140976204Y-83959504D01*
X140975000Y-83935000D01*
X140975000Y-83185000D01*
X140976204Y-83160496D01*
X140979804Y-83136227D01*
X140985765Y-83112429D01*
X140994030Y-83089329D01*
X141004520Y-83067151D01*
X141017133Y-83046107D01*
X141031747Y-83026402D01*
X141048223Y-83008223D01*
X141066402Y-82991747D01*
X141086107Y-82977133D01*
X141107151Y-82964520D01*
X141129329Y-82954030D01*
X141152429Y-82945765D01*
X141176227Y-82939804D01*
X141200496Y-82936204D01*
X141225000Y-82935000D01*
X142475000Y-82935000D01*
X142499504Y-82936204D01*
G37*
M02*
