G04 #@! TF.GenerationSoftware,KiCad,Pcbnew,(5.1.5)-3*
G04 #@! TF.CreationDate,2020-03-21T18:19:31+03:00*
G04 #@! TF.ProjectId,CAN+Power v0.1,43414e2b-506f-4776-9572-2076302e312e,rev?*
G04 #@! TF.SameCoordinates,Original*
G04 #@! TF.FileFunction,Legend,Top*
G04 #@! TF.FilePolarity,Positive*
%FSLAX46Y46*%
G04 Gerber Fmt 4.6, Leading zero omitted, Abs format (unit mm)*
G04 Created by KiCad (PCBNEW (5.1.5)-3) date 2020-03-21 18:19:31*
%MOMM*%
%LPD*%
G04 APERTURE LIST*
%ADD10C,0.100000*%
%ADD11C,0.150000*%
%ADD12C,0.120000*%
G04 APERTURE END LIST*
D10*
X136016666Y-78533333D02*
X136083333Y-78566666D01*
X136216666Y-78566666D01*
X136283333Y-78533333D01*
X136316666Y-78466666D01*
X136316666Y-78433333D01*
X136283333Y-78366666D01*
X136216666Y-78333333D01*
X136116666Y-78333333D01*
X136050000Y-78300000D01*
X136016666Y-78233333D01*
X136016666Y-78200000D01*
X136050000Y-78133333D01*
X136116666Y-78100000D01*
X136216666Y-78100000D01*
X136283333Y-78133333D01*
X136616666Y-78100000D02*
X136616666Y-78800000D01*
X136616666Y-78133333D02*
X136683333Y-78100000D01*
X136816666Y-78100000D01*
X136883333Y-78133333D01*
X136916666Y-78166666D01*
X136950000Y-78233333D01*
X136950000Y-78433333D01*
X136916666Y-78500000D01*
X136883333Y-78533333D01*
X136816666Y-78566666D01*
X136683333Y-78566666D01*
X136616666Y-78533333D01*
X137216666Y-78366666D02*
X137550000Y-78366666D01*
X137150000Y-78566666D02*
X137383333Y-77866666D01*
X137616666Y-78566666D01*
X137850000Y-78566666D02*
X137850000Y-78100000D01*
X137850000Y-78166666D02*
X137883333Y-78133333D01*
X137950000Y-78100000D01*
X138050000Y-78100000D01*
X138116666Y-78133333D01*
X138150000Y-78200000D01*
X138150000Y-78566666D01*
X138150000Y-78200000D02*
X138183333Y-78133333D01*
X138250000Y-78100000D01*
X138350000Y-78100000D01*
X138416666Y-78133333D01*
X138450000Y-78200000D01*
X138450000Y-78566666D01*
X139283333Y-77933333D02*
X139316666Y-77900000D01*
X139383333Y-77866666D01*
X139550000Y-77866666D01*
X139616666Y-77900000D01*
X139650000Y-77933333D01*
X139683333Y-78000000D01*
X139683333Y-78066666D01*
X139650000Y-78166666D01*
X139250000Y-78566666D01*
X139683333Y-78566666D01*
X140116666Y-77866666D02*
X140183333Y-77866666D01*
X140250000Y-77900000D01*
X140283333Y-77933333D01*
X140316666Y-78000000D01*
X140350000Y-78133333D01*
X140350000Y-78300000D01*
X140316666Y-78433333D01*
X140283333Y-78500000D01*
X140250000Y-78533333D01*
X140183333Y-78566666D01*
X140116666Y-78566666D01*
X140050000Y-78533333D01*
X140016666Y-78500000D01*
X139983333Y-78433333D01*
X139950000Y-78300000D01*
X139950000Y-78133333D01*
X139983333Y-78000000D01*
X140016666Y-77933333D01*
X140050000Y-77900000D01*
X140116666Y-77866666D01*
X140616666Y-77933333D02*
X140650000Y-77900000D01*
X140716666Y-77866666D01*
X140883333Y-77866666D01*
X140950000Y-77900000D01*
X140983333Y-77933333D01*
X141016666Y-78000000D01*
X141016666Y-78066666D01*
X140983333Y-78166666D01*
X140583333Y-78566666D01*
X141016666Y-78566666D01*
X141450000Y-77866666D02*
X141516666Y-77866666D01*
X141583333Y-77900000D01*
X141616666Y-77933333D01*
X141650000Y-78000000D01*
X141683333Y-78133333D01*
X141683333Y-78300000D01*
X141650000Y-78433333D01*
X141616666Y-78500000D01*
X141583333Y-78533333D01*
X141516666Y-78566666D01*
X141450000Y-78566666D01*
X141383333Y-78533333D01*
X141350000Y-78500000D01*
X141316666Y-78433333D01*
X141283333Y-78300000D01*
X141283333Y-78133333D01*
X141316666Y-78000000D01*
X141350000Y-77933333D01*
X141383333Y-77900000D01*
X141450000Y-77866666D01*
D11*
X126640476Y-77157142D02*
X126592857Y-77204761D01*
X126450000Y-77252380D01*
X126354761Y-77252380D01*
X126211904Y-77204761D01*
X126116666Y-77109523D01*
X126069047Y-77014285D01*
X126021428Y-76823809D01*
X126021428Y-76680952D01*
X126069047Y-76490476D01*
X126116666Y-76395238D01*
X126211904Y-76300000D01*
X126354761Y-76252380D01*
X126450000Y-76252380D01*
X126592857Y-76300000D01*
X126640476Y-76347619D01*
X127021428Y-76966666D02*
X127497619Y-76966666D01*
X126926190Y-77252380D02*
X127259523Y-76252380D01*
X127592857Y-77252380D01*
X127926190Y-77252380D02*
X127926190Y-76252380D01*
X128497619Y-77252380D01*
X128497619Y-76252380D01*
X128973809Y-76871428D02*
X129735714Y-76871428D01*
X129354761Y-77252380D02*
X129354761Y-76490476D01*
X130211904Y-77252380D02*
X130211904Y-76252380D01*
X130592857Y-76252380D01*
X130688095Y-76300000D01*
X130735714Y-76347619D01*
X130783333Y-76442857D01*
X130783333Y-76585714D01*
X130735714Y-76680952D01*
X130688095Y-76728571D01*
X130592857Y-76776190D01*
X130211904Y-76776190D01*
X131354761Y-77252380D02*
X131259523Y-77204761D01*
X131211904Y-77157142D01*
X131164285Y-77061904D01*
X131164285Y-76776190D01*
X131211904Y-76680952D01*
X131259523Y-76633333D01*
X131354761Y-76585714D01*
X131497619Y-76585714D01*
X131592857Y-76633333D01*
X131640476Y-76680952D01*
X131688095Y-76776190D01*
X131688095Y-77061904D01*
X131640476Y-77157142D01*
X131592857Y-77204761D01*
X131497619Y-77252380D01*
X131354761Y-77252380D01*
X132021428Y-76585714D02*
X132211904Y-77252380D01*
X132402380Y-76776190D01*
X132592857Y-77252380D01*
X132783333Y-76585714D01*
X133545238Y-77204761D02*
X133450000Y-77252380D01*
X133259523Y-77252380D01*
X133164285Y-77204761D01*
X133116666Y-77109523D01*
X133116666Y-76728571D01*
X133164285Y-76633333D01*
X133259523Y-76585714D01*
X133450000Y-76585714D01*
X133545238Y-76633333D01*
X133592857Y-76728571D01*
X133592857Y-76823809D01*
X133116666Y-76919047D01*
X134021428Y-77252380D02*
X134021428Y-76585714D01*
X134021428Y-76776190D02*
X134069047Y-76680952D01*
X134116666Y-76633333D01*
X134211904Y-76585714D01*
X134307142Y-76585714D01*
X135402380Y-77252380D02*
X135402380Y-76252380D01*
X135783333Y-76252380D01*
X135878571Y-76300000D01*
X135926190Y-76347619D01*
X135973809Y-76442857D01*
X135973809Y-76585714D01*
X135926190Y-76680952D01*
X135878571Y-76728571D01*
X135783333Y-76776190D01*
X135402380Y-76776190D01*
X136973809Y-77157142D02*
X136926190Y-77204761D01*
X136783333Y-77252380D01*
X136688095Y-77252380D01*
X136545238Y-77204761D01*
X136450000Y-77109523D01*
X136402380Y-77014285D01*
X136354761Y-76823809D01*
X136354761Y-76680952D01*
X136402380Y-76490476D01*
X136450000Y-76395238D01*
X136545238Y-76300000D01*
X136688095Y-76252380D01*
X136783333Y-76252380D01*
X136926190Y-76300000D01*
X136973809Y-76347619D01*
X137735714Y-76728571D02*
X137878571Y-76776190D01*
X137926190Y-76823809D01*
X137973809Y-76919047D01*
X137973809Y-77061904D01*
X137926190Y-77157142D01*
X137878571Y-77204761D01*
X137783333Y-77252380D01*
X137402380Y-77252380D01*
X137402380Y-76252380D01*
X137735714Y-76252380D01*
X137830952Y-76300000D01*
X137878571Y-76347619D01*
X137926190Y-76442857D01*
X137926190Y-76538095D01*
X137878571Y-76633333D01*
X137830952Y-76680952D01*
X137735714Y-76728571D01*
X137402380Y-76728571D01*
X139069047Y-76585714D02*
X139307142Y-77252380D01*
X139545238Y-76585714D01*
X140116666Y-76252380D02*
X140211904Y-76252380D01*
X140307142Y-76300000D01*
X140354761Y-76347619D01*
X140402380Y-76442857D01*
X140450000Y-76633333D01*
X140450000Y-76871428D01*
X140402380Y-77061904D01*
X140354761Y-77157142D01*
X140307142Y-77204761D01*
X140211904Y-77252380D01*
X140116666Y-77252380D01*
X140021428Y-77204761D01*
X139973809Y-77157142D01*
X139926190Y-77061904D01*
X139878571Y-76871428D01*
X139878571Y-76633333D01*
X139926190Y-76442857D01*
X139973809Y-76347619D01*
X140021428Y-76300000D01*
X140116666Y-76252380D01*
X140878571Y-77157142D02*
X140926190Y-77204761D01*
X140878571Y-77252380D01*
X140830952Y-77204761D01*
X140878571Y-77157142D01*
X140878571Y-77252380D01*
X141878571Y-77252380D02*
X141307142Y-77252380D01*
X141592857Y-77252380D02*
X141592857Y-76252380D01*
X141497619Y-76395238D01*
X141402380Y-76490476D01*
X141307142Y-76538095D01*
D12*
X127890000Y-83597936D02*
X127890000Y-84802064D01*
X129710000Y-83597936D02*
X129710000Y-84802064D01*
X124670000Y-89270000D02*
X123400000Y-89270000D01*
X124670000Y-88000000D02*
X124670000Y-89270000D01*
X122357071Y-77460000D02*
X121960000Y-77460000D01*
X122357071Y-78220000D02*
X121960000Y-78220000D01*
X113300000Y-77460000D02*
X119300000Y-77460000D01*
X113300000Y-78220000D02*
X113300000Y-77460000D01*
X119300000Y-78220000D02*
X113300000Y-78220000D01*
X121960000Y-79110000D02*
X119300000Y-79110000D01*
X122357071Y-80000000D02*
X121960000Y-80000000D01*
X122357071Y-80760000D02*
X121960000Y-80760000D01*
X113300000Y-80000000D02*
X119300000Y-80000000D01*
X113300000Y-80760000D02*
X113300000Y-80000000D01*
X119300000Y-80760000D02*
X113300000Y-80760000D01*
X121960000Y-81650000D02*
X119300000Y-81650000D01*
X122357071Y-82540000D02*
X121960000Y-82540000D01*
X122357071Y-83300000D02*
X121960000Y-83300000D01*
X113300000Y-82540000D02*
X119300000Y-82540000D01*
X113300000Y-83300000D02*
X113300000Y-82540000D01*
X119300000Y-83300000D02*
X113300000Y-83300000D01*
X121960000Y-84190000D02*
X119300000Y-84190000D01*
X122357071Y-85080000D02*
X121960000Y-85080000D01*
X122357071Y-85840000D02*
X121960000Y-85840000D01*
X113300000Y-85080000D02*
X119300000Y-85080000D01*
X113300000Y-85840000D02*
X113300000Y-85080000D01*
X119300000Y-85840000D02*
X113300000Y-85840000D01*
X121960000Y-86730000D02*
X119300000Y-86730000D01*
X122290000Y-87620000D02*
X121960000Y-87620000D01*
X122290000Y-88380000D02*
X121960000Y-88380000D01*
X119300000Y-87720000D02*
X113300000Y-87720000D01*
X119300000Y-87840000D02*
X113300000Y-87840000D01*
X119300000Y-87960000D02*
X113300000Y-87960000D01*
X119300000Y-88080000D02*
X113300000Y-88080000D01*
X119300000Y-88200000D02*
X113300000Y-88200000D01*
X119300000Y-88320000D02*
X113300000Y-88320000D01*
X113300000Y-87620000D02*
X119300000Y-87620000D01*
X113300000Y-88380000D02*
X113300000Y-87620000D01*
X119300000Y-88380000D02*
X113300000Y-88380000D01*
X119300000Y-89330000D02*
X121960000Y-89330000D01*
X119300000Y-76510000D02*
X119300000Y-89330000D01*
X121960000Y-76510000D02*
X119300000Y-76510000D01*
X121960000Y-89330000D02*
X121960000Y-76510000D01*
X138000000Y-96150000D02*
X138000000Y-99450000D01*
X138000000Y-99450000D02*
X143400000Y-99450000D01*
X138000000Y-96150000D02*
X143400000Y-96150000D01*
X159500000Y-95900000D02*
X159500000Y-95500000D01*
X158860000Y-95900000D02*
X159500000Y-95900000D01*
X155192000Y-79358000D02*
X155588000Y-79753000D01*
X152546000Y-76712000D02*
X152926000Y-77092000D01*
X155474000Y-79107000D02*
X155854000Y-79487000D01*
X152812000Y-76446000D02*
X153208000Y-76841000D01*
X155192000Y-84358000D02*
X155588000Y-84753000D01*
X152546000Y-81712000D02*
X152926000Y-82092000D01*
X155474000Y-84107000D02*
X155854000Y-84487000D01*
X152812000Y-81446000D02*
X153208000Y-81841000D01*
X155192000Y-89358000D02*
X155588000Y-89753000D01*
X152546000Y-86712000D02*
X152926000Y-87092000D01*
X155474000Y-89107000D02*
X155854000Y-89487000D01*
X152812000Y-86446000D02*
X153208000Y-86841000D01*
X155481000Y-94648000D02*
X155588000Y-94754000D01*
X152546000Y-91712000D02*
X152653000Y-91819000D01*
X155747000Y-94382000D02*
X155854000Y-94488000D01*
X152812000Y-91446000D02*
X152919000Y-91553000D01*
X150140000Y-75539000D02*
X159260000Y-75539000D01*
X150140000Y-95660000D02*
X159260000Y-95660000D01*
X159260000Y-95660000D02*
X159260000Y-75539000D01*
X150140000Y-95660000D02*
X150140000Y-75539000D01*
X157700000Y-95660000D02*
X157700000Y-75539000D01*
X158800000Y-95660000D02*
X158800000Y-75539000D01*
X156380000Y-78100000D02*
G75*
G03X156380000Y-78100000I-2180000J0D01*
G01*
X156380000Y-83100000D02*
G75*
G03X156380000Y-83100000I-2180000J0D01*
G01*
X156380000Y-88100000D02*
G75*
G03X156380000Y-88100000I-2180000J0D01*
G01*
X156380000Y-93100000D02*
G75*
G03X156380000Y-93100000I-2180000J0D01*
G01*
X133360000Y-113360000D02*
X133360000Y-110510000D01*
X133360000Y-104640000D02*
X133360000Y-107490000D01*
X125704437Y-104640000D02*
X133360000Y-104640000D01*
X125704437Y-113360000D02*
X133360000Y-113360000D01*
X124640000Y-112295563D02*
X124640000Y-110510000D01*
X124640000Y-105704437D02*
X124640000Y-107490000D01*
X124640000Y-105704437D02*
X125704437Y-104640000D01*
X124640000Y-112295563D02*
X125704437Y-113360000D01*
X123400000Y-106490000D02*
X124400000Y-106490000D01*
X123900000Y-105990000D02*
X123900000Y-106990000D01*
X145400000Y-107960000D02*
X147350000Y-107960000D01*
X145400000Y-107960000D02*
X143450000Y-107960000D01*
X145400000Y-102840000D02*
X147350000Y-102840000D01*
X145400000Y-102840000D02*
X141950000Y-102840000D01*
X135840000Y-81900000D02*
X132390000Y-81900000D01*
X135840000Y-81900000D02*
X137790000Y-81900000D01*
X135840000Y-87020000D02*
X133890000Y-87020000D01*
X135840000Y-87020000D02*
X137790000Y-87020000D01*
X150890000Y-107602064D02*
X150890000Y-106397936D01*
X152710000Y-107602064D02*
X152710000Y-106397936D01*
X138402064Y-113710000D02*
X137197936Y-113710000D01*
X138402064Y-111890000D02*
X137197936Y-111890000D01*
X148597936Y-111890000D02*
X149802064Y-111890000D01*
X148597936Y-113710000D02*
X149802064Y-113710000D01*
X125900000Y-95700000D02*
X125900000Y-92500000D01*
X125900000Y-92500000D02*
X136500000Y-92500000D01*
X136500000Y-92500000D02*
X136500000Y-95700000D01*
X136500000Y-99900000D02*
X136500000Y-103100000D01*
X136500000Y-103100000D02*
X125900000Y-103100000D01*
X125900000Y-103100000D02*
X125900000Y-99900000D01*
X139910000Y-107197936D02*
X139910000Y-108402064D01*
X138090000Y-107197936D02*
X138090000Y-108402064D01*
X155797936Y-108690000D02*
X157002064Y-108690000D01*
X155797936Y-110510000D02*
X157002064Y-110510000D01*
X157810000Y-104010000D02*
X157810000Y-101660000D01*
X157810000Y-97190000D02*
X157810000Y-99540000D01*
X152054437Y-97190000D02*
X157810000Y-97190000D01*
X152054437Y-104010000D02*
X157810000Y-104010000D01*
X150990000Y-102945563D02*
X150990000Y-101660000D01*
X150990000Y-98254437D02*
X150990000Y-99540000D01*
X150990000Y-98254437D02*
X152054437Y-97190000D01*
X150990000Y-102945563D02*
X152054437Y-104010000D01*
X149962500Y-98752500D02*
X150750000Y-98752500D01*
X150356250Y-98358750D02*
X150356250Y-99146250D01*
D11*
X130977142Y-84366666D02*
X131024761Y-84414285D01*
X131072380Y-84557142D01*
X131072380Y-84652380D01*
X131024761Y-84795238D01*
X130929523Y-84890476D01*
X130834285Y-84938095D01*
X130643809Y-84985714D01*
X130500952Y-84985714D01*
X130310476Y-84938095D01*
X130215238Y-84890476D01*
X130120000Y-84795238D01*
X130072380Y-84652380D01*
X130072380Y-84557142D01*
X130120000Y-84414285D01*
X130167619Y-84366666D01*
X130072380Y-84033333D02*
X130072380Y-83414285D01*
X130453333Y-83747619D01*
X130453333Y-83604761D01*
X130500952Y-83509523D01*
X130548571Y-83461904D01*
X130643809Y-83414285D01*
X130881904Y-83414285D01*
X130977142Y-83461904D01*
X131024761Y-83509523D01*
X131072380Y-83604761D01*
X131072380Y-83890476D01*
X131024761Y-83985714D01*
X130977142Y-84033333D01*
X121616666Y-89852380D02*
X121616666Y-90566666D01*
X121569047Y-90709523D01*
X121473809Y-90804761D01*
X121330952Y-90852380D01*
X121235714Y-90852380D01*
X122616666Y-90852380D02*
X122045238Y-90852380D01*
X122330952Y-90852380D02*
X122330952Y-89852380D01*
X122235714Y-89995238D01*
X122140476Y-90090476D01*
X122045238Y-90138095D01*
X140461904Y-95752380D02*
X140461904Y-94752380D01*
X140700000Y-94752380D01*
X140842857Y-94800000D01*
X140938095Y-94895238D01*
X140985714Y-94990476D01*
X141033333Y-95180952D01*
X141033333Y-95323809D01*
X140985714Y-95514285D01*
X140938095Y-95609523D01*
X140842857Y-95704761D01*
X140700000Y-95752380D01*
X140461904Y-95752380D01*
X141985714Y-95752380D02*
X141414285Y-95752380D01*
X141700000Y-95752380D02*
X141700000Y-94752380D01*
X141604761Y-94895238D01*
X141509523Y-94990476D01*
X141414285Y-95038095D01*
X149716666Y-96152380D02*
X149716666Y-96866666D01*
X149669047Y-97009523D01*
X149573809Y-97104761D01*
X149430952Y-97152380D01*
X149335714Y-97152380D01*
X150145238Y-96247619D02*
X150192857Y-96200000D01*
X150288095Y-96152380D01*
X150526190Y-96152380D01*
X150621428Y-96200000D01*
X150669047Y-96247619D01*
X150716666Y-96342857D01*
X150716666Y-96438095D01*
X150669047Y-96580952D01*
X150097619Y-97152380D01*
X150716666Y-97152380D01*
X134433333Y-106707142D02*
X134385714Y-106754761D01*
X134242857Y-106802380D01*
X134147619Y-106802380D01*
X134004761Y-106754761D01*
X133909523Y-106659523D01*
X133861904Y-106564285D01*
X133814285Y-106373809D01*
X133814285Y-106230952D01*
X133861904Y-106040476D01*
X133909523Y-105945238D01*
X134004761Y-105850000D01*
X134147619Y-105802380D01*
X134242857Y-105802380D01*
X134385714Y-105850000D01*
X134433333Y-105897619D01*
X135052380Y-105802380D02*
X135147619Y-105802380D01*
X135242857Y-105850000D01*
X135290476Y-105897619D01*
X135338095Y-105992857D01*
X135385714Y-106183333D01*
X135385714Y-106421428D01*
X135338095Y-106611904D01*
X135290476Y-106707142D01*
X135242857Y-106754761D01*
X135147619Y-106802380D01*
X135052380Y-106802380D01*
X134957142Y-106754761D01*
X134909523Y-106707142D01*
X134861904Y-106611904D01*
X134814285Y-106421428D01*
X134814285Y-106183333D01*
X134861904Y-105992857D01*
X134909523Y-105897619D01*
X134957142Y-105850000D01*
X135052380Y-105802380D01*
X144638095Y-101452380D02*
X144638095Y-102261904D01*
X144685714Y-102357142D01*
X144733333Y-102404761D01*
X144828571Y-102452380D01*
X145019047Y-102452380D01*
X145114285Y-102404761D01*
X145161904Y-102357142D01*
X145209523Y-102261904D01*
X145209523Y-101452380D01*
X145638095Y-101547619D02*
X145685714Y-101500000D01*
X145780952Y-101452380D01*
X146019047Y-101452380D01*
X146114285Y-101500000D01*
X146161904Y-101547619D01*
X146209523Y-101642857D01*
X146209523Y-101738095D01*
X146161904Y-101880952D01*
X145590476Y-102452380D01*
X146209523Y-102452380D01*
X135078095Y-80512380D02*
X135078095Y-81321904D01*
X135125714Y-81417142D01*
X135173333Y-81464761D01*
X135268571Y-81512380D01*
X135459047Y-81512380D01*
X135554285Y-81464761D01*
X135601904Y-81417142D01*
X135649523Y-81321904D01*
X135649523Y-80512380D01*
X136649523Y-81512380D02*
X136078095Y-81512380D01*
X136363809Y-81512380D02*
X136363809Y-80512380D01*
X136268571Y-80655238D01*
X136173333Y-80750476D01*
X136078095Y-80798095D01*
X150432380Y-108000000D02*
X149956190Y-108333333D01*
X150432380Y-108571428D02*
X149432380Y-108571428D01*
X149432380Y-108190476D01*
X149480000Y-108095238D01*
X149527619Y-108047619D01*
X149622857Y-108000000D01*
X149765714Y-108000000D01*
X149860952Y-108047619D01*
X149908571Y-108095238D01*
X149956190Y-108190476D01*
X149956190Y-108571428D01*
X150384761Y-107619047D02*
X150432380Y-107523809D01*
X150432380Y-107333333D01*
X150384761Y-107238095D01*
X150289523Y-107190476D01*
X150241904Y-107190476D01*
X150146666Y-107238095D01*
X150099047Y-107333333D01*
X150099047Y-107476190D01*
X150051428Y-107571428D01*
X149956190Y-107619047D01*
X149908571Y-107619047D01*
X149813333Y-107571428D01*
X149765714Y-107476190D01*
X149765714Y-107333333D01*
X149813333Y-107238095D01*
X150384761Y-106333333D02*
X150432380Y-106428571D01*
X150432380Y-106619047D01*
X150384761Y-106714285D01*
X150337142Y-106761904D01*
X150241904Y-106809523D01*
X149956190Y-106809523D01*
X149860952Y-106761904D01*
X149813333Y-106714285D01*
X149765714Y-106619047D01*
X149765714Y-106428571D01*
X149813333Y-106333333D01*
X150432380Y-105380952D02*
X150432380Y-105952380D01*
X150432380Y-105666666D02*
X149432380Y-105666666D01*
X149575238Y-105761904D01*
X149670476Y-105857142D01*
X149718095Y-105952380D01*
X137633333Y-111602380D02*
X137300000Y-111126190D01*
X137061904Y-111602380D02*
X137061904Y-110602380D01*
X137442857Y-110602380D01*
X137538095Y-110650000D01*
X137585714Y-110697619D01*
X137633333Y-110792857D01*
X137633333Y-110935714D01*
X137585714Y-111030952D01*
X137538095Y-111078571D01*
X137442857Y-111126190D01*
X137061904Y-111126190D01*
X138014285Y-110697619D02*
X138061904Y-110650000D01*
X138157142Y-110602380D01*
X138395238Y-110602380D01*
X138490476Y-110650000D01*
X138538095Y-110697619D01*
X138585714Y-110792857D01*
X138585714Y-110888095D01*
X138538095Y-111030952D01*
X137966666Y-111602380D01*
X138585714Y-111602380D01*
X149083333Y-111352380D02*
X148750000Y-110876190D01*
X148511904Y-111352380D02*
X148511904Y-110352380D01*
X148892857Y-110352380D01*
X148988095Y-110400000D01*
X149035714Y-110447619D01*
X149083333Y-110542857D01*
X149083333Y-110685714D01*
X149035714Y-110780952D01*
X148988095Y-110828571D01*
X148892857Y-110876190D01*
X148511904Y-110876190D01*
X150035714Y-111352380D02*
X149464285Y-111352380D01*
X149750000Y-111352380D02*
X149750000Y-110352380D01*
X149654761Y-110495238D01*
X149559523Y-110590476D01*
X149464285Y-110638095D01*
X131033333Y-91602380D02*
X130557142Y-91602380D01*
X130557142Y-90602380D01*
X131890476Y-91602380D02*
X131319047Y-91602380D01*
X131604761Y-91602380D02*
X131604761Y-90602380D01*
X131509523Y-90745238D01*
X131414285Y-90840476D01*
X131319047Y-90888095D01*
X141177142Y-108252380D02*
X141224761Y-108300000D01*
X141272380Y-108442857D01*
X141272380Y-108538095D01*
X141224761Y-108680952D01*
X141129523Y-108776190D01*
X141034285Y-108823809D01*
X140843809Y-108871428D01*
X140700952Y-108871428D01*
X140510476Y-108823809D01*
X140415238Y-108776190D01*
X140320000Y-108680952D01*
X140272380Y-108538095D01*
X140272380Y-108442857D01*
X140320000Y-108300000D01*
X140367619Y-108252380D01*
X140605714Y-107966666D02*
X140605714Y-107585714D01*
X140272380Y-107823809D02*
X141129523Y-107823809D01*
X141224761Y-107776190D01*
X141272380Y-107680952D01*
X141272380Y-107585714D01*
X141272380Y-106728571D02*
X141272380Y-107300000D01*
X141272380Y-107014285D02*
X140272380Y-107014285D01*
X140415238Y-107109523D01*
X140510476Y-107204761D01*
X140558095Y-107300000D01*
X156233333Y-108137142D02*
X156185714Y-108184761D01*
X156042857Y-108232380D01*
X155947619Y-108232380D01*
X155804761Y-108184761D01*
X155709523Y-108089523D01*
X155661904Y-107994285D01*
X155614285Y-107803809D01*
X155614285Y-107660952D01*
X155661904Y-107470476D01*
X155709523Y-107375238D01*
X155804761Y-107280000D01*
X155947619Y-107232380D01*
X156042857Y-107232380D01*
X156185714Y-107280000D01*
X156233333Y-107327619D01*
X156614285Y-107327619D02*
X156661904Y-107280000D01*
X156757142Y-107232380D01*
X156995238Y-107232380D01*
X157090476Y-107280000D01*
X157138095Y-107327619D01*
X157185714Y-107422857D01*
X157185714Y-107518095D01*
X157138095Y-107660952D01*
X156566666Y-108232380D01*
X157185714Y-108232380D01*
X154333333Y-105457142D02*
X154285714Y-105504761D01*
X154142857Y-105552380D01*
X154047619Y-105552380D01*
X153904761Y-105504761D01*
X153809523Y-105409523D01*
X153761904Y-105314285D01*
X153714285Y-105123809D01*
X153714285Y-104980952D01*
X153761904Y-104790476D01*
X153809523Y-104695238D01*
X153904761Y-104600000D01*
X154047619Y-104552380D01*
X154142857Y-104552380D01*
X154285714Y-104600000D01*
X154333333Y-104647619D01*
X155285714Y-105552380D02*
X154714285Y-105552380D01*
X155000000Y-105552380D02*
X155000000Y-104552380D01*
X154904761Y-104695238D01*
X154809523Y-104790476D01*
X154714285Y-104838095D01*
M02*
